<svg width="83" height="29" viewBox="0 0 83 29" fill="none" xmlns="http://www.w3.org/2000/svg">
<rect width="83" height="29" rx="6" fill="#F43232"/>
<path d="M21.387 14.062C21.8196 14.1427 22.1753 14.359 22.454 14.711C22.7326 15.063 22.872 15.4663 22.872 15.921C22.872 16.3317 22.7693 16.6947 22.564 17.01C22.366 17.318 22.0763 17.56 21.695 17.736C21.3136 17.912 20.8626 18 20.342 18H17.031V10.322H20.199C20.7196 10.322 21.167 10.4063 21.541 10.575C21.9223 10.7437 22.2083 10.9783 22.399 11.279C22.597 11.5797 22.696 11.9207 22.696 12.302C22.696 12.7493 22.575 13.1233 22.333 13.424C22.0983 13.7247 21.783 13.9373 21.387 14.062ZM18.571 13.49H19.979C20.3456 13.49 20.628 13.4093 20.826 13.248C21.024 13.0793 21.123 12.841 21.123 12.533C21.123 12.225 21.024 11.9867 20.826 11.818C20.628 11.6493 20.3456 11.565 19.979 11.565H18.571V13.49ZM20.122 16.746C20.496 16.746 20.7856 16.658 20.991 16.482C21.2036 16.306 21.31 16.0567 21.31 15.734C21.31 15.404 21.2 15.1473 20.98 14.964C20.76 14.7733 20.463 14.678 20.089 14.678H18.571V16.746H20.122ZM23.7033 14.931C23.7033 14.315 23.8243 13.7687 24.0663 13.292C24.3157 12.8153 24.6493 12.4487 25.0673 12.192C25.4927 11.9353 25.9657 11.807 26.4863 11.807C26.941 11.807 27.337 11.8987 27.6743 12.082C28.019 12.2653 28.294 12.4963 28.4993 12.775V11.906H30.0503V18H28.4993V17.109C28.3013 17.395 28.0263 17.6333 27.6743 17.824C27.3297 18.0073 26.93 18.099 26.4753 18.099C25.962 18.099 25.4927 17.967 25.0673 17.703C24.6493 17.439 24.3157 17.0687 24.0663 16.592C23.8243 16.108 23.7033 15.5543 23.7033 14.931ZM28.4993 14.953C28.4993 14.579 28.426 14.26 28.2793 13.996C28.1327 13.7247 27.9347 13.5193 27.6853 13.38C27.436 13.2333 27.1683 13.16 26.8823 13.16C26.5963 13.16 26.3323 13.2297 26.0903 13.369C25.8483 13.5083 25.6503 13.7137 25.4963 13.985C25.3497 14.249 25.2763 14.5643 25.2763 14.931C25.2763 15.2977 25.3497 15.6203 25.4963 15.899C25.6503 16.1703 25.8483 16.3793 26.0903 16.526C26.3397 16.6727 26.6037 16.746 26.8823 16.746C27.1683 16.746 27.436 16.6763 27.6853 16.537C27.9347 16.3903 28.1327 16.185 28.2793 15.921C28.426 15.6497 28.4993 15.327 28.4993 14.953ZM33.3474 13.171V16.119C33.3474 16.3243 33.3951 16.4747 33.4904 16.57C33.5931 16.658 33.7617 16.702 33.9964 16.702H34.7114V18H33.7434C32.4454 18 31.7964 17.3693 31.7964 16.108V13.171H31.0704V11.906H31.7964V10.399H33.3474V11.906H34.7114V13.171H33.3474ZM35.4231 14.931C35.4231 14.315 35.5441 13.7687 35.7861 13.292C36.0354 12.8153 36.3691 12.4487 36.7871 12.192C37.2124 11.9353 37.6854 11.807 38.2061 11.807C38.6607 11.807 39.0567 11.8987 39.3941 12.082C39.7387 12.2653 40.0137 12.4963 40.2191 12.775V11.906H41.7701V18H40.2191V17.109C40.0211 17.395 39.7461 17.6333 39.3941 17.824C39.0494 18.0073 38.6497 18.099 38.1951 18.099C37.6817 18.099 37.2124 17.967 36.7871 17.703C36.3691 17.439 36.0354 17.0687 35.7861 16.592C35.5441 16.108 35.4231 15.5543 35.4231 14.931ZM40.2191 14.953C40.2191 14.579 40.1457 14.26 39.9991 13.996C39.8524 13.7247 39.6544 13.5193 39.4051 13.38C39.1557 13.2333 38.8881 13.16 38.6021 13.16C38.3161 13.16 38.0521 13.2297 37.8101 13.369C37.5681 13.5083 37.3701 13.7137 37.2161 13.985C37.0694 14.249 36.9961 14.5643 36.9961 14.931C36.9961 15.2977 37.0694 15.6203 37.2161 15.899C37.3701 16.1703 37.5681 16.3793 37.8101 16.526C38.0594 16.6727 38.3234 16.746 38.6021 16.746C38.8881 16.746 39.1557 16.6763 39.4051 16.537C39.6544 16.3903 39.8524 16.185 39.9991 15.921C40.1457 15.6497 40.2191 15.327 40.2191 14.953ZM44.8141 9.86V18H43.2741V9.86H44.8141ZM49.9437 18L47.8757 15.404V18H46.3357V9.86H47.8757V14.491L49.9217 11.906H51.9237L49.2397 14.964L51.9457 18H49.9437ZM52.3635 14.931C52.3635 14.315 52.4845 13.7687 52.7265 13.292C52.9758 12.8153 53.3095 12.4487 53.7275 12.192C54.1528 11.9353 54.6258 11.807 55.1465 11.807C55.6012 11.807 55.9972 11.8987 56.3345 12.082C56.6792 12.2653 56.9542 12.4963 57.1595 12.775V11.906H58.7105V18H57.1595V17.109C56.9615 17.395 56.6865 17.6333 56.3345 17.824C55.9898 18.0073 55.5902 18.099 55.1355 18.099C54.6222 18.099 54.1528 17.967 53.7275 17.703C53.3095 17.439 52.9758 17.0687 52.7265 16.592C52.4845 16.108 52.3635 15.5543 52.3635 14.931ZM57.1595 14.953C57.1595 14.579 57.0862 14.26 56.9395 13.996C56.7928 13.7247 56.5948 13.5193 56.3455 13.38C56.0962 13.2333 55.8285 13.16 55.5425 13.16C55.2565 13.16 54.9925 13.2297 54.7505 13.369C54.5085 13.5083 54.3105 13.7137 54.1565 13.985C54.0098 14.249 53.9365 14.5643 53.9365 14.931C53.9365 15.2977 54.0098 15.6203 54.1565 15.899C54.3105 16.1703 54.5085 16.3793 54.7505 16.526C54.9998 16.6727 55.2638 16.746 55.5425 16.746C55.8285 16.746 56.0962 16.6763 56.3455 16.537C56.5948 16.3903 56.7928 16.185 56.9395 15.921C57.0862 15.6497 57.1595 15.327 57.1595 14.953ZM63.5916 11.818C64.3176 11.818 64.9042 12.049 65.3516 12.511C65.7989 12.9657 66.0226 13.6037 66.0226 14.425V18H64.4826V14.634C64.4826 14.15 64.3616 13.7797 64.1196 13.523C63.8776 13.259 63.5476 13.127 63.1296 13.127C62.7042 13.127 62.3669 13.259 62.1176 13.523C61.8756 13.7797 61.7546 14.15 61.7546 14.634V18H60.2146V11.906H61.7546V12.665C61.9599 12.401 62.2202 12.1957 62.5356 12.049C62.8582 11.895 63.2102 11.818 63.5916 11.818Z" fill="white"/>
</svg>
