<svg width="330" height="472" viewBox="0 0 330 472" fill="none" xmlns="http://www.w3.org/2000/svg">
<g filter="url(#filter0_d_270_3569)">
<path d="M5 9C5 4.58172 8.58172 1 13 1H317C321.418 1 325 4.58172 325 9V116H5V9Z" fill="#258FE3"/>
<path d="M25.9092 24.9858C25.9092 24.8247 25.8841 24.6815 25.834 24.5562C25.7874 24.4308 25.7033 24.3162 25.5815 24.2124C25.4598 24.1086 25.2879 24.0083 25.0659 23.9116C24.8475 23.8114 24.5682 23.7093 24.228 23.6055C23.8556 23.4909 23.5119 23.3638 23.1968 23.2241C22.8853 23.0809 22.6131 22.9162 22.3804 22.73C22.1476 22.5402 21.9668 22.3236 21.8379 22.0801C21.709 21.833 21.6445 21.5483 21.6445 21.2261C21.6445 20.9074 21.7108 20.6174 21.8433 20.356C21.9793 20.0946 22.1709 19.869 22.418 19.6792C22.6686 19.4858 22.964 19.3372 23.3042 19.2334C23.6444 19.126 24.0203 19.0723 24.4321 19.0723C25.0122 19.0723 25.5117 19.1797 25.9307 19.3945C26.3532 19.6094 26.6772 19.8976 26.9028 20.2593C27.132 20.6209 27.2466 21.0202 27.2466 21.457H25.9092C25.9092 21.1992 25.8537 20.9718 25.7427 20.7749C25.6353 20.5744 25.4705 20.4168 25.2485 20.3022C25.0301 20.1877 24.7526 20.1304 24.416 20.1304C24.0973 20.1304 23.8324 20.1787 23.6211 20.2754C23.4098 20.3721 23.2523 20.5028 23.1484 20.6675C23.0446 20.8322 22.9927 21.0184 22.9927 21.2261C22.9927 21.3729 23.0267 21.5072 23.0947 21.6289C23.1628 21.7471 23.2666 21.8581 23.4062 21.9619C23.5459 22.0622 23.7214 22.1571 23.9326 22.2466C24.1439 22.3361 24.3927 22.422 24.6792 22.5044C25.1125 22.6333 25.4902 22.7765 25.8125 22.9341C26.1348 23.0881 26.4033 23.2635 26.6182 23.4604C26.833 23.6574 26.9941 23.8812 27.1016 24.1318C27.209 24.3789 27.2627 24.66 27.2627 24.9751C27.2627 25.3045 27.1965 25.6017 27.064 25.8667C26.9315 26.1281 26.7417 26.3519 26.4946 26.5381C26.2511 26.7207 25.9575 26.8621 25.6138 26.9624C25.2736 27.0591 24.894 27.1074 24.4751 27.1074C24.0991 27.1074 23.7285 27.0573 23.3633 26.957C23.0016 26.8568 22.6722 26.7046 22.375 26.5005C22.0778 26.2928 21.8415 26.035 21.666 25.7271C21.4906 25.4155 21.4028 25.0521 21.4028 24.6367H22.751C22.751 24.891 22.7939 25.1076 22.8799 25.2866C22.9694 25.4657 23.0929 25.6125 23.2505 25.7271C23.408 25.8381 23.5907 25.9204 23.7983 25.9741C24.0096 26.0278 24.2352 26.0547 24.4751 26.0547C24.7902 26.0547 25.0534 26.0099 25.2646 25.9204C25.4795 25.8309 25.6406 25.7056 25.748 25.5444C25.8555 25.3833 25.9092 25.1971 25.9092 24.9858ZM30.8882 27.1074C30.4585 27.1074 30.07 27.0376 29.7227 26.8979C29.3789 26.7547 29.0853 26.556 28.8418 26.3018C28.6019 26.0475 28.4175 25.7485 28.2886 25.4048C28.1597 25.061 28.0952 24.6904 28.0952 24.293V24.0781C28.0952 23.6234 28.1615 23.2116 28.2939 22.8428C28.4264 22.474 28.6108 22.1589 28.8472 21.8975C29.0835 21.6325 29.3628 21.4302 29.6851 21.2905C30.0073 21.1509 30.3564 21.0811 30.7324 21.0811C31.1478 21.0811 31.5112 21.1509 31.8228 21.2905C32.1343 21.4302 32.3921 21.6271 32.5962 21.8813C32.8039 22.132 32.9578 22.431 33.0581 22.7783C33.1619 23.1257 33.2139 23.5088 33.2139 23.9277V24.481H28.7236V23.5518H31.9355V23.4497C31.9284 23.217 31.8818 22.9985 31.7959 22.7944C31.7135 22.5903 31.5864 22.4256 31.4146 22.3003C31.2427 22.175 31.0135 22.1123 30.7271 22.1123C30.5122 22.1123 30.3206 22.1589 30.1523 22.252C29.9876 22.3415 29.8498 22.4722 29.7388 22.644C29.6278 22.8159 29.5418 23.0236 29.481 23.2671C29.4237 23.507 29.395 23.7773 29.395 24.0781V24.293C29.395 24.5472 29.429 24.7835 29.4971 25.002C29.5687 25.2168 29.6725 25.4048 29.8086 25.5659C29.9447 25.7271 30.1094 25.8542 30.3027 25.9473C30.4961 26.0368 30.7163 26.0815 30.9634 26.0815C31.2749 26.0815 31.5524 26.0189 31.7959 25.8936C32.0394 25.7682 32.2507 25.591 32.4297 25.3618L33.1118 26.0225C32.9865 26.2051 32.8236 26.3805 32.623 26.5488C32.4225 26.7135 32.1772 26.8478 31.8872 26.9517C31.6007 27.0555 31.2677 27.1074 30.8882 27.1074ZM35.6094 18.75V27H34.3096V18.75H35.6094ZM39.5894 27.1074C39.1597 27.1074 38.7712 27.0376 38.4238 26.8979C38.0801 26.7547 37.7865 26.556 37.543 26.3018C37.3031 26.0475 37.1187 25.7485 36.9897 25.4048C36.8608 25.061 36.7964 24.6904 36.7964 24.293V24.0781C36.7964 23.6234 36.8626 23.2116 36.9951 22.8428C37.1276 22.474 37.312 22.1589 37.5483 21.8975C37.7847 21.6325 38.064 21.4302 38.3862 21.2905C38.7085 21.1509 39.0576 21.0811 39.4336 21.0811C39.849 21.0811 40.2124 21.1509 40.5239 21.2905C40.8354 21.4302 41.0933 21.6271 41.2974 21.8813C41.505 22.132 41.659 22.431 41.7593 22.7783C41.8631 23.1257 41.915 23.5088 41.915 23.9277V24.481H37.4248V23.5518H40.6367V23.4497C40.6296 23.217 40.583 22.9985 40.4971 22.7944C40.4147 22.5903 40.2876 22.4256 40.1157 22.3003C39.9438 22.175 39.7147 22.1123 39.4282 22.1123C39.2134 22.1123 39.0218 22.1589 38.8535 22.252C38.6888 22.3415 38.5509 22.4722 38.4399 22.644C38.3289 22.8159 38.243 23.0236 38.1821 23.2671C38.1248 23.507 38.0962 23.7773 38.0962 24.0781V24.293C38.0962 24.5472 38.1302 24.7835 38.1982 25.002C38.2699 25.2168 38.3737 25.4048 38.5098 25.5659C38.6458 25.7271 38.8105 25.8542 39.0039 25.9473C39.1973 26.0368 39.4175 26.0815 39.6646 26.0815C39.9761 26.0815 40.2536 26.0189 40.4971 25.8936C40.7406 25.7682 40.9518 25.591 41.1309 25.3618L41.813 26.0225C41.6877 26.2051 41.5247 26.3805 41.3242 26.5488C41.1237 26.7135 40.8784 26.8478 40.5884 26.9517C40.3019 27.0555 39.9689 27.1074 39.5894 27.1074ZM45.2988 26.0762C45.5101 26.0762 45.6999 26.035 45.8682 25.9526C46.04 25.8667 46.1779 25.7485 46.2817 25.5981C46.3892 25.4478 46.4482 25.2741 46.459 25.0771H47.6782C47.6711 25.4531 47.5601 25.7951 47.3452 26.103C47.1304 26.411 46.8457 26.6562 46.4912 26.8389C46.1367 27.0179 45.7446 27.1074 45.3149 27.1074C44.8709 27.1074 44.4842 27.0322 44.1548 26.8818C43.8254 26.7279 43.5514 26.5166 43.333 26.248C43.1146 25.9795 42.9499 25.6698 42.8389 25.3188C42.7314 24.9679 42.6777 24.592 42.6777 24.1909V24.0029C42.6777 23.6019 42.7314 23.2259 42.8389 22.875C42.9499 22.5205 43.1146 22.209 43.333 21.9404C43.5514 21.6719 43.8254 21.4624 44.1548 21.312C44.4842 21.158 44.8691 21.0811 45.3096 21.0811C45.7751 21.0811 46.1833 21.1742 46.5342 21.3604C46.8851 21.543 47.1608 21.799 47.3613 22.1284C47.5654 22.4543 47.6711 22.8338 47.6782 23.2671H46.459C46.4482 23.0522 46.3945 22.8589 46.2979 22.687C46.2048 22.5116 46.0723 22.3719 45.9004 22.2681C45.7321 22.1642 45.5298 22.1123 45.2935 22.1123C45.0321 22.1123 44.8154 22.166 44.6436 22.2734C44.4717 22.3773 44.3374 22.5205 44.2407 22.7031C44.144 22.8822 44.0742 23.0845 44.0312 23.3101C43.9919 23.5321 43.9722 23.763 43.9722 24.0029V24.1909C43.9722 24.4308 43.9919 24.6636 44.0312 24.8892C44.0706 25.1147 44.1387 25.3171 44.2354 25.4961C44.3356 25.6715 44.4717 25.813 44.6436 25.9204C44.8154 26.0243 45.0339 26.0762 45.2988 26.0762ZM51.3359 21.1885V22.1338H48.0596V21.1885H51.3359ZM49.0049 19.7651H50.2993V25.394C50.2993 25.5731 50.3244 25.7109 50.3745 25.8076C50.4282 25.9007 50.5016 25.9634 50.5947 25.9956C50.6878 26.0278 50.797 26.0439 50.9224 26.0439C51.0119 26.0439 51.0978 26.0386 51.1802 26.0278C51.2625 26.0171 51.3288 26.0063 51.3789 25.9956L51.3843 26.9839C51.2769 27.0161 51.1515 27.0448 51.0083 27.0698C50.8687 27.0949 50.7075 27.1074 50.5249 27.1074C50.2277 27.1074 49.9645 27.0555 49.7354 26.9517C49.5062 26.8442 49.3271 26.6706 49.1982 26.4307C49.0693 26.1908 49.0049 25.8721 49.0049 25.4746V19.7651ZM57.4751 27H55.8047L55.8154 25.9312H57.4751C57.9585 25.9312 58.3631 25.8255 58.689 25.6143C59.0184 25.403 59.2655 25.1004 59.4302 24.7065C59.5985 24.3127 59.6826 23.8436 59.6826 23.2993V22.875C59.6826 22.4525 59.6343 22.0783 59.5376 21.7524C59.4445 21.4266 59.3049 21.1527 59.1187 20.9307C58.936 20.7087 58.7104 20.5404 58.4419 20.4258C58.1769 20.3112 57.8708 20.2539 57.5234 20.2539H55.7725V19.1797H57.5234C58.0426 19.1797 58.5171 19.2674 58.9468 19.4429C59.3765 19.6147 59.7471 19.8636 60.0586 20.1895C60.3737 20.5153 60.6154 20.9056 60.7837 21.3604C60.952 21.8151 61.0361 22.3236 61.0361 22.8857V23.2993C61.0361 23.8615 60.952 24.37 60.7837 24.8247C60.6154 25.2795 60.3737 25.6698 60.0586 25.9956C59.7435 26.3179 59.3675 26.5667 58.9307 26.7422C58.4974 26.9141 58.0122 27 57.4751 27ZM56.5513 19.1797V27H55.2031V19.1797H56.5513ZM65.5371 25.8345V23.063C65.5371 22.8553 65.4995 22.6763 65.4243 22.5259C65.3491 22.3755 65.2345 22.2591 65.0806 22.1768C64.9302 22.0944 64.7404 22.0532 64.5112 22.0532C64.3 22.0532 64.1174 22.089 63.9634 22.1606C63.8094 22.2323 63.6895 22.3289 63.6035 22.4507C63.5176 22.5724 63.4746 22.7103 63.4746 22.8643H62.1855C62.1855 22.6351 62.241 22.4131 62.3521 22.1982C62.4631 21.9834 62.6242 21.7918 62.8354 21.6235C63.0467 21.4552 63.2992 21.3228 63.5928 21.2261C63.8864 21.1294 64.2158 21.0811 64.5811 21.0811C65.0179 21.0811 65.4046 21.1545 65.7412 21.3013C66.0814 21.4481 66.3481 21.6701 66.5415 21.9673C66.7384 22.2609 66.8369 22.6297 66.8369 23.0737V25.6572C66.8369 25.9222 66.8548 26.1603 66.8906 26.3716C66.93 26.5793 66.9855 26.7601 67.0571 26.9141V27H65.7305C65.6696 26.8604 65.6213 26.6831 65.5854 26.4683C65.5532 26.2498 65.5371 26.0386 65.5371 25.8345ZM65.7251 23.4658L65.7358 24.2661H64.8066C64.5667 24.2661 64.3555 24.2894 64.1729 24.3359C63.9902 24.3789 63.8381 24.4434 63.7163 24.5293C63.5946 24.6152 63.5033 24.7191 63.4424 24.8408C63.3815 24.9626 63.3511 25.1004 63.3511 25.2544C63.3511 25.4084 63.3869 25.5498 63.4585 25.6787C63.5301 25.804 63.634 25.9025 63.77 25.9741C63.9097 26.0457 64.078 26.0815 64.2749 26.0815C64.5399 26.0815 64.7708 26.0278 64.9678 25.9204C65.1683 25.8094 65.3258 25.6751 65.4404 25.5176C65.555 25.3564 65.6159 25.2043 65.623 25.061L66.042 25.6357C65.999 25.7826 65.9256 25.9401 65.8218 26.1084C65.7179 26.2767 65.5819 26.4378 65.4136 26.5918C65.2489 26.7422 65.0501 26.8657 64.8174 26.9624C64.5882 27.0591 64.3232 27.1074 64.0225 27.1074C63.6429 27.1074 63.3045 27.0322 63.0073 26.8818C62.7101 26.7279 62.4774 26.522 62.3091 26.2642C62.1408 26.0028 62.0566 25.7074 62.0566 25.3779C62.0566 25.07 62.1139 24.7979 62.2285 24.5615C62.3467 24.3216 62.5186 24.1211 62.7441 23.96C62.9733 23.7988 63.2526 23.6771 63.582 23.5947C63.9115 23.5088 64.2874 23.4658 64.71 23.4658H65.7251ZM70.8545 21.1885V22.1338H67.5781V21.1885H70.8545ZM68.5234 19.7651H69.8179V25.394C69.8179 25.5731 69.8429 25.7109 69.8931 25.8076C69.9468 25.9007 70.0202 25.9634 70.1133 25.9956C70.2064 26.0278 70.3156 26.0439 70.4409 26.0439C70.5304 26.0439 70.6164 26.0386 70.6987 26.0278C70.7811 26.0171 70.8473 26.0063 70.8975 25.9956L70.9028 26.9839C70.7954 27.0161 70.6701 27.0448 70.5269 27.0698C70.3872 27.0949 70.2261 27.1074 70.0435 27.1074C69.7463 27.1074 69.4831 27.0555 69.2539 26.9517C69.0247 26.8442 68.8457 26.6706 68.7168 26.4307C68.5879 26.1908 68.5234 25.8721 68.5234 25.4746V19.7651ZM74.4155 27.1074C73.9858 27.1074 73.5973 27.0376 73.25 26.8979C72.9062 26.7547 72.6126 26.556 72.3691 26.3018C72.1292 26.0475 71.9448 25.7485 71.8159 25.4048C71.687 25.061 71.6226 24.6904 71.6226 24.293V24.0781C71.6226 23.6234 71.6888 23.2116 71.8213 22.8428C71.9538 22.474 72.1382 22.1589 72.3745 21.8975C72.6108 21.6325 72.8901 21.4302 73.2124 21.2905C73.5347 21.1509 73.8838 21.0811 74.2598 21.0811C74.6751 21.0811 75.0386 21.1509 75.3501 21.2905C75.6616 21.4302 75.9194 21.6271 76.1235 21.8813C76.3312 22.132 76.4852 22.431 76.5854 22.7783C76.6893 23.1257 76.7412 23.5088 76.7412 23.9277V24.481H72.251V23.5518H75.4629V23.4497C75.4557 23.217 75.4092 22.9985 75.3232 22.7944C75.2409 22.5903 75.1138 22.4256 74.9419 22.3003C74.77 22.175 74.5409 22.1123 74.2544 22.1123C74.0396 22.1123 73.848 22.1589 73.6797 22.252C73.515 22.3415 73.3771 22.4722 73.2661 22.644C73.1551 22.8159 73.0692 23.0236 73.0083 23.2671C72.951 23.507 72.9224 23.7773 72.9224 24.0781V24.293C72.9224 24.5472 72.9564 24.7835 73.0244 25.002C73.096 25.2168 73.1999 25.4048 73.3359 25.5659C73.472 25.7271 73.6367 25.8542 73.8301 25.9473C74.0234 26.0368 74.2437 26.0815 74.4907 26.0815C74.8022 26.0815 75.0798 26.0189 75.3232 25.8936C75.5667 25.7682 75.778 25.591 75.957 25.3618L76.6392 26.0225C76.5138 26.2051 76.3509 26.3805 76.1504 26.5488C75.9499 26.7135 75.7046 26.8478 75.4146 26.9517C75.1281 27.0555 74.7951 27.1074 74.4155 27.1074Z" fill="white"/>
<path d="M28.0137 65.4062V91H23.6016V65.4062H28.0137ZM38.4551 76.6035V80.1016H26.8887V76.6035H38.4551ZM39.9141 65.4062V68.9219H26.8887V65.4062H39.9141ZM46.8047 75.6016V91H42.5684V71.9805H46.6113L46.8047 75.6016ZM52.623 71.8574L52.5879 75.7949C52.3301 75.748 52.0488 75.7129 51.7441 75.6895C51.4512 75.666 51.1582 75.6543 50.8652 75.6543C50.1387 75.6543 49.5 75.7598 48.9492 75.9707C48.3984 76.1699 47.9355 76.4629 47.5605 76.8496C47.1973 77.2246 46.916 77.6816 46.7168 78.2207C46.5176 78.7598 46.4004 79.3633 46.3652 80.0312L45.3984 80.1016C45.3984 78.9062 45.5156 77.7988 45.75 76.7793C45.9844 75.7598 46.3359 74.8633 46.8047 74.0898C47.2852 73.3164 47.8828 72.7129 48.5977 72.2793C49.3242 71.8457 50.1621 71.6289 51.1113 71.6289C51.3691 71.6289 51.6445 71.6523 51.9375 71.6992C52.2422 71.7461 52.4707 71.7988 52.623 71.8574ZM59.8125 71.9805V91H55.5586V71.9805H59.8125ZM55.2773 66.9883C55.2773 66.3438 55.4883 65.8105 55.9102 65.3887C56.3438 64.9551 56.9414 64.7383 57.7031 64.7383C58.4531 64.7383 59.0449 64.9551 59.4785 65.3887C59.9121 65.8105 60.1289 66.3438 60.1289 66.9883C60.1289 67.6211 59.9121 68.1484 59.4785 68.5703C59.0449 68.9922 58.4531 69.2031 57.7031 69.2031C56.9414 69.2031 56.3438 68.9922 55.9102 68.5703C55.4883 68.1484 55.2773 67.6211 55.2773 66.9883ZM68.4258 86.9219L68.4082 89.9453C68.4082 91.1406 68.1094 92.3711 67.5117 93.6367C66.9141 94.9023 66.123 95.9453 65.1387 96.7656L62.8711 95.4473C63.1992 94.9199 63.498 94.3867 63.7676 93.8477C64.0371 93.3086 64.2539 92.7344 64.418 92.125C64.582 91.5156 64.6641 90.8418 64.6641 90.1035V86.9219H68.4258ZM91.8574 68.8164L84.2109 91H79.5879L89.2207 65.4062H92.1738L91.8574 68.8164ZM98.2559 91L90.5918 68.8164L90.2578 65.4062H93.2285L102.896 91H98.2559ZM97.8867 81.5078V85.0059H83.9648V81.5078H97.8867ZM109.277 75.6367V98.3125H105.041V71.9805H108.943L109.277 75.6367ZM121.67 81.3145V81.6836C121.67 83.0664 121.506 84.3496 121.178 85.5332C120.861 86.7051 120.387 87.7305 119.754 88.6094C119.133 89.4766 118.365 90.1504 117.451 90.6309C116.537 91.1113 115.482 91.3516 114.287 91.3516C113.104 91.3516 112.066 91.1348 111.176 90.7012C110.297 90.2559 109.553 89.6289 108.943 88.8203C108.334 88.0117 107.842 87.0625 107.467 85.9727C107.104 84.8711 106.846 83.6641 106.693 82.3516V80.9277C106.846 79.5332 107.104 78.2676 107.467 77.1309C107.842 75.9941 108.334 75.0156 108.943 74.1953C109.553 73.375 110.297 72.7422 111.176 72.2969C112.055 71.8516 113.08 71.6289 114.252 71.6289C115.447 71.6289 116.508 71.8633 117.434 72.332C118.359 72.7891 119.139 73.4453 119.771 74.3008C120.404 75.1445 120.879 76.1641 121.195 77.3594C121.512 78.543 121.67 79.8613 121.67 81.3145ZM117.434 81.6836V81.3145C117.434 80.4355 117.352 79.6211 117.188 78.8711C117.023 78.1094 116.766 77.4414 116.414 76.8672C116.062 76.293 115.611 75.8477 115.061 75.5312C114.521 75.2031 113.871 75.0391 113.109 75.0391C112.359 75.0391 111.715 75.168 111.176 75.4258C110.637 75.6719 110.186 76.0176 109.822 76.4629C109.459 76.9082 109.178 77.4297 108.979 78.0273C108.779 78.6133 108.639 79.252 108.557 79.9434V83.3535C108.697 84.1973 108.938 84.9707 109.277 85.6738C109.617 86.377 110.098 86.9395 110.719 87.3613C111.352 87.7715 112.16 87.9766 113.145 87.9766C113.906 87.9766 114.557 87.8125 115.096 87.4844C115.635 87.1562 116.074 86.7051 116.414 86.1309C116.766 85.5449 117.023 84.8711 117.188 84.1094C117.352 83.3477 117.434 82.5391 117.434 81.6836ZM129.527 75.6016V91H125.291V71.9805H129.334L129.527 75.6016ZM135.346 71.8574L135.311 75.7949C135.053 75.748 134.771 75.7129 134.467 75.6895C134.174 75.666 133.881 75.6543 133.588 75.6543C132.861 75.6543 132.223 75.7598 131.672 75.9707C131.121 76.1699 130.658 76.4629 130.283 76.8496C129.92 77.2246 129.639 77.6816 129.439 78.2207C129.24 78.7598 129.123 79.3633 129.088 80.0312L128.121 80.1016C128.121 78.9062 128.238 77.7988 128.473 76.7793C128.707 75.7598 129.059 74.8633 129.527 74.0898C130.008 73.3164 130.605 72.7129 131.32 72.2793C132.047 71.8457 132.885 71.6289 133.834 71.6289C134.092 71.6289 134.367 71.6523 134.66 71.6992C134.965 71.7461 135.193 71.7988 135.346 71.8574ZM163.875 87.625V91H146.719V88.0996L155.051 79.0117C155.965 77.9805 156.686 77.0898 157.213 76.3398C157.74 75.5898 158.109 74.916 158.32 74.3184C158.543 73.709 158.654 73.1172 158.654 72.543C158.654 71.7344 158.502 71.0254 158.197 70.416C157.904 69.7949 157.471 69.3086 156.896 68.957C156.322 68.5938 155.625 68.4121 154.805 68.4121C153.855 68.4121 153.059 68.6172 152.414 69.0273C151.77 69.4375 151.283 70.0059 150.955 70.7324C150.627 71.4473 150.463 72.2676 150.463 73.1934H146.227C146.227 71.7051 146.566 70.3457 147.246 69.1152C147.926 67.873 148.91 66.8887 150.199 66.1621C151.488 65.4238 153.041 65.0547 154.857 65.0547C156.568 65.0547 158.021 65.3418 159.217 65.916C160.412 66.4902 161.32 67.3047 161.941 68.3594C162.574 69.4141 162.891 70.6621 162.891 72.1035C162.891 72.9004 162.762 73.6914 162.504 74.4766C162.246 75.2617 161.877 76.0469 161.396 76.832C160.928 77.6055 160.371 78.3848 159.727 79.1699C159.082 79.9434 158.373 80.7285 157.6 81.5254L152.062 87.625H163.875ZM178.746 65.3184V91H174.51V70.3457L168.234 72.4727V68.9746L178.236 65.3184H178.746Z" fill="white"/>
<path d="M325 116.5H325.5V116V9C325.5 4.30558 321.694 0.5 317 0.5H13C8.30558 0.5 4.5 4.30558 4.5 9V116V116.5H5H325Z" stroke="#258FE3"/>
</g>
<path d="M5 116H325V464C325 468.418 321.418 472 317 472H13C8.58171 472 5 468.418 5 464V116Z" fill="white"/>
<rect x="237.5" y="331" width="24" height="24" rx="12" fill="#004998"/>
<path d="M24.8403 155.222L22.5039 162H21.0913L24.0347 154.18H24.937L24.8403 155.222ZM26.7954 162L24.4536 155.222L24.3516 154.18H25.2593L28.2134 162H26.7954ZM26.6826 159.1V160.168H22.4287V159.1H26.6826ZM30.1631 157.306V164.234H28.8687V156.188H30.061L30.1631 157.306ZM33.9497 159.041V159.153C33.9497 159.576 33.8996 159.968 33.7993 160.33C33.7026 160.688 33.5576 161.001 33.3643 161.27C33.1745 161.535 32.9399 161.74 32.6606 161.887C32.3813 162.034 32.0591 162.107 31.6938 162.107C31.3322 162.107 31.0153 162.041 30.7432 161.909C30.4746 161.773 30.2472 161.581 30.061 161.334C29.8748 161.087 29.7244 160.797 29.6099 160.464C29.4989 160.127 29.4201 159.758 29.3735 159.357V158.922C29.4201 158.496 29.4989 158.11 29.6099 157.762C29.7244 157.415 29.8748 157.116 30.061 156.865C30.2472 156.615 30.4746 156.421 30.7432 156.285C31.0117 156.149 31.325 156.081 31.6831 156.081C32.0483 156.081 32.3724 156.153 32.6553 156.296C32.9382 156.436 33.1763 156.636 33.3696 156.897C33.563 157.155 33.708 157.467 33.8047 157.832C33.9014 158.194 33.9497 158.597 33.9497 159.041ZM32.6553 159.153V159.041C32.6553 158.772 32.6302 158.523 32.5801 158.294C32.5299 158.061 32.4512 157.857 32.3438 157.682C32.2363 157.506 32.0985 157.37 31.9302 157.273C31.7655 157.173 31.5667 157.123 31.334 157.123C31.1048 157.123 30.9079 157.162 30.7432 157.241C30.5785 157.316 30.4406 157.422 30.3296 157.558C30.2186 157.694 30.1326 157.854 30.0718 158.036C30.0109 158.215 29.9679 158.41 29.9429 158.622V159.664C29.9858 159.921 30.0592 160.158 30.1631 160.373C30.2669 160.587 30.4137 160.759 30.6035 160.888C30.7969 161.014 31.0439 161.076 31.3447 161.076C31.5775 161.076 31.7762 161.026 31.9409 160.926C32.1056 160.826 32.2399 160.688 32.3438 160.512C32.4512 160.333 32.5299 160.127 32.5801 159.895C32.6302 159.662 32.6553 159.415 32.6553 159.153ZM36.3506 157.295V162H35.0562V156.188H36.2915L36.3506 157.295ZM38.1284 156.151L38.1177 157.354C38.0389 157.34 37.953 157.329 37.8599 157.322C37.7703 157.315 37.6808 157.311 37.5913 157.311C37.3693 157.311 37.1742 157.343 37.0059 157.408C36.8376 157.469 36.6961 157.558 36.5815 157.676C36.4705 157.791 36.3846 157.931 36.3237 158.095C36.2629 158.26 36.2271 158.444 36.2163 158.648L35.9209 158.67C35.9209 158.305 35.9567 157.966 36.0283 157.655C36.0999 157.343 36.2074 157.069 36.3506 156.833C36.4974 156.597 36.68 156.412 36.8984 156.28C37.1204 156.147 37.3765 156.081 37.6665 156.081C37.7453 156.081 37.8294 156.088 37.9189 156.103C38.012 156.117 38.0819 156.133 38.1284 156.151ZM40.3252 156.188V162H39.0254V156.188H40.3252ZM38.9395 154.663C38.9395 154.466 39.0039 154.303 39.1328 154.174C39.2653 154.042 39.4479 153.976 39.6807 153.976C39.9098 153.976 40.0907 154.042 40.2231 154.174C40.3556 154.303 40.4219 154.466 40.4219 154.663C40.4219 154.856 40.3556 155.018 40.2231 155.146C40.0907 155.275 39.9098 155.34 39.6807 155.34C39.4479 155.34 39.2653 155.275 39.1328 155.146C39.0039 155.018 38.9395 154.856 38.9395 154.663ZM43.1289 153.75V162H41.8291V153.75H43.1289ZM52.4531 160.969V162H47.2109V161.114L49.7568 158.337C50.0361 158.022 50.2563 157.75 50.4175 157.521C50.5786 157.291 50.6914 157.085 50.7559 156.903C50.8239 156.717 50.8579 156.536 50.8579 156.36C50.8579 156.113 50.8114 155.897 50.7183 155.71C50.6287 155.521 50.4963 155.372 50.3208 155.265C50.1453 155.154 49.9323 155.098 49.6816 155.098C49.3916 155.098 49.1481 155.161 48.9512 155.286C48.7542 155.411 48.6056 155.585 48.5054 155.807C48.4051 156.026 48.355 156.276 48.355 156.559H47.0605C47.0605 156.104 47.1644 155.689 47.3721 155.313C47.5798 154.933 47.8805 154.633 48.2744 154.411C48.6683 154.185 49.1427 154.072 49.6978 154.072C50.2205 154.072 50.6646 154.16 51.0298 154.335C51.395 154.511 51.6725 154.76 51.8623 155.082C52.0557 155.404 52.1523 155.786 52.1523 156.226C52.1523 156.47 52.113 156.711 52.0342 156.951C51.9554 157.191 51.8426 157.431 51.6958 157.671C51.5526 157.907 51.3825 158.145 51.1855 158.385C50.9886 158.622 50.772 158.861 50.5356 159.105L48.8438 160.969H52.4531ZM58.5601 157.435V158.713C58.5601 159.325 58.4992 159.848 58.3774 160.281C58.2593 160.711 58.0874 161.06 57.8618 161.329C57.6362 161.597 57.3659 161.794 57.0508 161.919C56.7393 162.045 56.3901 162.107 56.0034 162.107C55.6955 162.107 55.409 162.068 55.144 161.989C54.8826 161.91 54.6463 161.787 54.4351 161.619C54.2238 161.45 54.043 161.234 53.8926 160.969C53.7458 160.7 53.6312 160.38 53.5488 160.007C53.4701 159.635 53.4307 159.203 53.4307 158.713V157.435C53.4307 156.819 53.4915 156.299 53.6133 155.877C53.735 155.451 53.9087 155.105 54.1343 154.84C54.3599 154.572 54.6284 154.377 54.9399 154.255C55.255 154.133 55.606 154.072 55.9927 154.072C56.3042 154.072 56.5907 154.112 56.8521 154.19C57.117 154.266 57.3534 154.386 57.561 154.55C57.7723 154.715 57.9513 154.93 58.0981 155.195C58.2485 155.456 58.3631 155.773 58.4419 156.146C58.5207 156.514 58.5601 156.944 58.5601 157.435ZM57.2656 158.896V157.241C57.2656 156.93 57.2477 156.656 57.2119 156.419C57.1761 156.18 57.1224 155.977 57.0508 155.812C56.9827 155.644 56.8968 155.508 56.793 155.404C56.6891 155.297 56.571 155.22 56.4385 155.173C56.306 155.123 56.1574 155.098 55.9927 155.098C55.7922 155.098 55.6131 155.138 55.4556 155.216C55.298 155.292 55.1655 155.413 55.0581 155.582C54.9507 155.75 54.8683 155.972 54.811 156.248C54.7573 156.52 54.7305 156.851 54.7305 157.241V158.896C54.7305 159.211 54.7484 159.488 54.7842 159.728C54.82 159.968 54.8737 160.174 54.9453 160.346C55.0169 160.514 55.1029 160.654 55.2031 160.765C55.307 160.872 55.4251 160.951 55.5576 161.001C55.6937 161.051 55.8423 161.076 56.0034 161.076C56.2075 161.076 56.3883 161.037 56.5459 160.958C56.7035 160.879 56.8359 160.754 56.9434 160.582C57.0508 160.407 57.1313 160.179 57.1851 159.9C57.2388 159.621 57.2656 159.286 57.2656 158.896ZM64.957 160.969V162H59.7148V161.114L62.2607 158.337C62.54 158.022 62.7603 157.75 62.9214 157.521C63.0825 157.291 63.1953 157.085 63.2598 156.903C63.3278 156.717 63.3618 156.536 63.3618 156.36C63.3618 156.113 63.3153 155.897 63.2222 155.71C63.1326 155.521 63.0002 155.372 62.8247 155.265C62.6493 155.154 62.4362 155.098 62.1855 155.098C61.8955 155.098 61.652 155.161 61.4551 155.286C61.2581 155.411 61.1095 155.585 61.0093 155.807C60.909 156.026 60.8589 156.276 60.8589 156.559H59.5645C59.5645 156.104 59.6683 155.689 59.876 155.313C60.0837 154.933 60.3844 154.633 60.7783 154.411C61.1722 154.185 61.6466 154.072 62.2017 154.072C62.7244 154.072 63.1685 154.16 63.5337 154.335C63.8989 154.511 64.1764 154.76 64.3662 155.082C64.5596 155.404 64.6562 155.786 64.6562 156.226C64.6562 156.47 64.6169 156.711 64.5381 156.951C64.4593 157.191 64.3465 157.431 64.1997 157.671C64.0565 157.907 63.8864 158.145 63.6895 158.385C63.4925 158.622 63.2759 158.861 63.0396 159.105L61.3477 160.969H64.957ZM67.4868 157.504H68.2603C68.561 157.504 68.8099 157.452 69.0068 157.349C69.2074 157.245 69.356 157.102 69.4526 156.919C69.5493 156.736 69.5977 156.527 69.5977 156.291C69.5977 156.043 69.5529 155.832 69.4634 155.657C69.3774 155.478 69.245 155.34 69.0659 155.243C68.8905 155.146 68.6667 155.098 68.3945 155.098C68.1654 155.098 67.9577 155.145 67.7715 155.238C67.5889 155.327 67.4438 155.456 67.3364 155.625C67.229 155.789 67.1753 155.986 67.1753 156.215H65.8755C65.8755 155.8 65.9847 155.431 66.2031 155.109C66.4215 154.787 66.7188 154.534 67.0947 154.352C67.4743 154.165 67.9004 154.072 68.373 154.072C68.8779 154.072 69.3184 154.156 69.6943 154.325C70.0739 154.489 70.3693 154.736 70.5806 155.066C70.7918 155.395 70.8975 155.804 70.8975 156.291C70.8975 156.513 70.8455 156.738 70.7417 156.967C70.6379 157.196 70.4839 157.406 70.2798 157.596C70.0757 157.782 69.8215 157.934 69.5171 158.052C69.2127 158.167 68.86 158.224 68.459 158.224H67.4868V157.504ZM67.4868 158.514V157.805H68.459C68.9173 157.805 69.3076 157.859 69.6299 157.966C69.9557 158.074 70.2207 158.222 70.4248 158.412C70.6289 158.598 70.7775 158.811 70.8706 159.051C70.9673 159.291 71.0156 159.545 71.0156 159.814C71.0156 160.179 70.9494 160.505 70.8169 160.792C70.688 161.074 70.5036 161.314 70.2637 161.511C70.0238 161.708 69.7427 161.857 69.4204 161.957C69.1017 162.057 68.7544 162.107 68.3784 162.107C68.0418 162.107 67.7196 162.061 67.4116 161.968C67.1037 161.875 66.828 161.737 66.5845 161.554C66.341 161.368 66.1476 161.137 66.0044 160.861C65.8647 160.582 65.7949 160.26 65.7949 159.895H67.0894C67.0894 160.127 67.1431 160.333 67.2505 160.512C67.3615 160.688 67.5155 160.826 67.7124 160.926C67.9129 161.026 68.1421 161.076 68.3999 161.076C68.672 161.076 68.9066 161.028 69.1035 160.931C69.3005 160.834 69.4508 160.691 69.5547 160.501C69.6621 160.312 69.7158 160.083 69.7158 159.814C69.7158 159.51 69.6567 159.263 69.5386 159.073C69.4204 158.883 69.2521 158.743 69.0337 158.654C68.8153 158.561 68.5575 158.514 68.2603 158.514H67.4868Z" fill="black"/>
<path d="M85.1417 155.5L88.8583 159.209L92.5749 155.5L93.7166 156.642L88.8583 161.5L84 156.642L85.1417 155.5Z" fill="#002B59"/>
<path d="M299 162.217L302.709 158.5L299 154.783L300.142 153.642L305 158.5L300.142 163.358L299 162.217Z" fill="#002B59"/>
<path d="M275 154.784L271.291 158.5L275 162.217L273.858 163.358L269 158.5L273.858 153.642L275 154.784Z" fill="#002B59"/>
<path d="M33.0757 205.023C33.0757 204.841 33.047 204.68 32.9897 204.54C32.936 204.397 32.8394 204.268 32.6997 204.153C32.5636 204.039 32.3739 203.93 32.1304 203.826C31.8905 203.722 31.5861 203.616 31.2173 203.509C30.8306 203.394 30.4814 203.267 30.1699 203.127C29.8584 202.984 29.5916 202.821 29.3696 202.639C29.1476 202.456 28.9775 202.247 28.8594 202.01C28.7412 201.774 28.6821 201.504 28.6821 201.199C28.6821 200.895 28.7448 200.614 28.8701 200.356C28.9954 200.098 29.1745 199.874 29.4072 199.685C29.6436 199.491 29.9246 199.341 30.2505 199.233C30.5763 199.126 30.9398 199.072 31.3408 199.072C31.9281 199.072 32.4258 199.185 32.834 199.411C33.2458 199.633 33.5591 199.924 33.7739 200.286C33.9888 200.644 34.0962 201.027 34.0962 201.436H33.0649C33.0649 201.142 33.0023 200.882 32.877 200.657C32.7516 200.428 32.5618 200.249 32.3076 200.12C32.0534 199.987 31.7311 199.921 31.3408 199.921C30.972 199.921 30.6676 199.976 30.4277 200.087C30.1878 200.198 30.0088 200.349 29.8906 200.539C29.776 200.728 29.7188 200.945 29.7188 201.188C29.7188 201.353 29.7528 201.504 29.8208 201.64C29.8924 201.772 30.0016 201.896 30.1484 202.01C30.2988 202.125 30.4886 202.23 30.7178 202.327C30.9505 202.424 31.228 202.517 31.5503 202.606C31.9943 202.732 32.3774 202.871 32.6997 203.025C33.022 203.179 33.2869 203.353 33.4946 203.546C33.7059 203.736 33.8617 203.953 33.9619 204.196C34.0658 204.436 34.1177 204.708 34.1177 205.013C34.1177 205.331 34.0532 205.62 33.9243 205.877C33.7954 206.135 33.611 206.355 33.3711 206.538C33.1312 206.721 32.8429 206.862 32.5063 206.962C32.1733 207.059 31.8009 207.107 31.3892 207.107C31.0275 207.107 30.6712 207.057 30.3203 206.957C29.973 206.857 29.6561 206.706 29.3696 206.506C29.0868 206.305 28.8594 206.058 28.6875 205.765C28.5192 205.467 28.4351 205.124 28.4351 204.733H29.4663C29.4663 205.002 29.5182 205.233 29.6221 205.426C29.7259 205.616 29.8674 205.774 30.0464 205.899C30.229 206.024 30.4349 206.117 30.6641 206.178C30.8968 206.236 31.1385 206.264 31.3892 206.264C31.7508 206.264 32.057 206.214 32.3076 206.114C32.5583 206.014 32.748 205.87 32.877 205.684C33.0094 205.498 33.0757 205.278 33.0757 205.023Z" fill="black"/>
<path d="M72.2354 199.18H73.2397L75.8018 205.555L78.3584 199.18H79.3682L76.1885 207H75.4043L72.2354 199.18ZM71.9077 199.18H72.7939L72.939 203.949V207H71.9077V199.18ZM78.8042 199.18H79.6904V207H78.6592V203.949L78.8042 199.18Z" fill="black"/>
<path d="M120.797 199.18V207H119.777V199.18H120.797ZM123.311 199.18V200.028H117.269V199.18H123.311Z" fill="black"/>
<path d="M162.965 204.637L164.517 199.18H165.269L164.834 201.301L163.164 207H162.417L162.965 204.637ZM161.359 199.18L162.594 204.529L162.965 207H162.224L160.328 199.18H161.359ZM167.278 204.524L168.486 199.18H169.523L167.632 207H166.891L167.278 204.524ZM165.382 199.18L166.891 204.637L167.439 207H166.692L165.081 201.301L164.641 199.18H165.382Z" fill="black"/>
<path d="M209.797 199.18V207H208.777V199.18H209.797ZM212.311 199.18V200.028H206.269V199.18H212.311Z" fill="black"/>
<path d="M250.944 199.18V207H249.908V199.18H250.944ZM254.221 202.698V203.546H250.719V202.698H254.221ZM254.752 199.18V200.028H250.719V199.18H254.752Z" fill="black"/>
<path d="M297.076 205.023C297.076 204.841 297.047 204.68 296.99 204.54C296.936 204.397 296.839 204.268 296.7 204.153C296.564 204.039 296.374 203.93 296.13 203.826C295.89 203.722 295.586 203.616 295.217 203.509C294.831 203.394 294.481 203.267 294.17 203.127C293.858 202.984 293.592 202.821 293.37 202.639C293.148 202.456 292.978 202.247 292.859 202.01C292.741 201.774 292.682 201.504 292.682 201.199C292.682 200.895 292.745 200.614 292.87 200.356C292.995 200.098 293.174 199.874 293.407 199.685C293.644 199.491 293.925 199.341 294.25 199.233C294.576 199.126 294.94 199.072 295.341 199.072C295.928 199.072 296.426 199.185 296.834 199.411C297.246 199.633 297.559 199.924 297.774 200.286C297.989 200.644 298.096 201.027 298.096 201.436H297.065C297.065 201.142 297.002 200.882 296.877 200.657C296.752 200.428 296.562 200.249 296.308 200.12C296.053 199.987 295.731 199.921 295.341 199.921C294.972 199.921 294.668 199.976 294.428 200.087C294.188 200.198 294.009 200.349 293.891 200.539C293.776 200.728 293.719 200.945 293.719 201.188C293.719 201.353 293.753 201.504 293.821 201.64C293.892 201.772 294.002 201.896 294.148 202.01C294.299 202.125 294.489 202.23 294.718 202.327C294.951 202.424 295.228 202.517 295.55 202.606C295.994 202.732 296.377 202.871 296.7 203.025C297.022 203.179 297.287 203.353 297.495 203.546C297.706 203.736 297.862 203.953 297.962 204.196C298.066 204.436 298.118 204.708 298.118 205.013C298.118 205.331 298.053 205.62 297.924 205.877C297.795 206.135 297.611 206.355 297.371 206.538C297.131 206.721 296.843 206.862 296.506 206.962C296.173 207.059 295.801 207.107 295.389 207.107C295.028 207.107 294.671 207.057 294.32 206.957C293.973 206.857 293.656 206.706 293.37 206.506C293.087 206.305 292.859 206.058 292.688 205.765C292.519 205.467 292.435 205.124 292.435 204.733H293.466C293.466 205.002 293.518 205.233 293.622 205.426C293.726 205.616 293.867 205.774 294.046 205.899C294.229 206.024 294.435 206.117 294.664 206.178C294.897 206.236 295.139 206.264 295.389 206.264C295.751 206.264 296.057 206.214 296.308 206.114C296.558 206.014 296.748 205.87 296.877 205.684C297.009 205.498 297.076 205.278 297.076 205.023Z" fill="black"/>
<path d="M298.322 234.137V242H297.328V235.377L295.325 236.108V235.211L298.166 234.137H298.322Z" fill="black"/>
<path d="M34.1802 276.184V277H29.0615V276.286L31.6235 273.434C31.9386 273.083 32.1821 272.785 32.354 272.542C32.5295 272.295 32.6512 272.075 32.7192 271.881C32.7909 271.684 32.8267 271.484 32.8267 271.28C32.8267 271.022 32.7729 270.789 32.6655 270.582C32.5617 270.37 32.4077 270.202 32.2036 270.077C31.9995 269.951 31.7524 269.889 31.4624 269.889C31.1151 269.889 30.825 269.957 30.5923 270.093C30.3631 270.225 30.1912 270.411 30.0767 270.651C29.9621 270.891 29.9048 271.167 29.9048 271.479H28.9111C28.9111 271.038 29.0078 270.635 29.2012 270.27C29.3945 269.905 29.681 269.615 30.0605 269.4C30.4401 269.181 30.9074 269.072 31.4624 269.072C31.9565 269.072 32.3791 269.16 32.73 269.335C33.0809 269.507 33.3494 269.751 33.5356 270.066C33.7254 270.377 33.8203 270.743 33.8203 271.162C33.8203 271.391 33.7809 271.624 33.7021 271.86C33.627 272.093 33.5213 272.325 33.3853 272.558C33.2528 272.791 33.097 273.02 32.918 273.246C32.7425 273.471 32.5545 273.693 32.354 273.912L30.2593 276.184H34.1802Z" fill="black"/>
<path d="M74.5063 272.601H75.2153C75.5627 272.601 75.8491 272.544 76.0747 272.429C76.3039 272.311 76.474 272.152 76.585 271.951C76.6995 271.747 76.7568 271.518 76.7568 271.264C76.7568 270.963 76.7067 270.71 76.6064 270.506C76.5062 270.302 76.3558 270.148 76.1553 270.044C75.9548 269.941 75.7005 269.889 75.3926 269.889C75.1133 269.889 74.8662 269.944 74.6514 270.055C74.4401 270.163 74.2736 270.317 74.1519 270.517C74.0337 270.718 73.9746 270.954 73.9746 271.226H72.981C72.981 270.829 73.0812 270.467 73.2817 270.141C73.4823 269.815 73.7633 269.556 74.125 269.362C74.4902 269.169 74.9128 269.072 75.3926 269.072C75.8652 269.072 76.2788 269.156 76.6333 269.325C76.9878 269.489 77.2635 269.736 77.4604 270.066C77.6574 270.392 77.7559 270.798 77.7559 271.285C77.7559 271.482 77.7093 271.693 77.6162 271.919C77.5267 272.141 77.3853 272.349 77.1919 272.542C77.0021 272.735 76.755 272.895 76.4507 273.02C76.1463 273.142 75.7811 273.203 75.355 273.203H74.5063V272.601ZM74.5063 273.417V272.821H75.355C75.8527 272.821 76.2645 272.88 76.5903 272.999C76.9162 273.117 77.1722 273.274 77.3584 273.471C77.5482 273.668 77.6807 273.885 77.7559 274.121C77.8346 274.354 77.874 274.587 77.874 274.819C77.874 275.185 77.8114 275.509 77.686 275.792C77.5643 276.074 77.3906 276.314 77.165 276.511C76.943 276.708 76.6816 276.857 76.3809 276.957C76.0801 277.057 75.7524 277.107 75.3979 277.107C75.0578 277.107 74.7373 277.059 74.4365 276.962C74.1393 276.866 73.8761 276.726 73.647 276.543C73.4178 276.357 73.2388 276.13 73.1099 275.861C72.981 275.589 72.9165 275.279 72.9165 274.932H73.9102C73.9102 275.204 73.9692 275.442 74.0874 275.646C74.2091 275.851 74.381 276.01 74.603 276.125C74.8286 276.236 75.0936 276.291 75.3979 276.291C75.7023 276.291 75.9637 276.239 76.1821 276.135C76.4041 276.028 76.5742 275.867 76.6924 275.652C76.8141 275.437 76.875 275.167 76.875 274.841C76.875 274.515 76.807 274.248 76.6709 274.041C76.5348 273.829 76.3415 273.674 76.0908 273.573C75.8438 273.469 75.5519 273.417 75.2153 273.417H74.5063Z" fill="black"/>
<path d="M122.341 274.368V275.185H116.691V274.599L120.193 269.18H121.004L120.134 270.748L117.819 274.368H122.341ZM121.251 269.18V277H120.257V269.18H121.251Z" fill="black"/>
<path d="M162.313 273.278L161.518 273.074L161.91 269.18H165.922V270.098H162.753L162.517 272.225C162.66 272.143 162.841 272.066 163.06 271.994C163.282 271.923 163.536 271.887 163.822 271.887C164.184 271.887 164.508 271.949 164.794 272.075C165.081 272.196 165.324 272.372 165.525 272.601C165.729 272.83 165.885 273.106 165.992 273.428C166.1 273.75 166.153 274.11 166.153 274.508C166.153 274.884 166.101 275.229 165.998 275.544C165.897 275.86 165.745 276.135 165.541 276.372C165.337 276.604 165.079 276.785 164.768 276.914C164.46 277.043 164.096 277.107 163.677 277.107C163.362 277.107 163.063 277.064 162.78 276.979C162.501 276.889 162.25 276.755 162.028 276.576C161.81 276.393 161.631 276.167 161.491 275.899C161.355 275.627 161.269 275.308 161.233 274.943H162.179C162.222 275.236 162.308 275.484 162.437 275.684C162.565 275.885 162.734 276.037 162.941 276.141C163.153 276.241 163.398 276.291 163.677 276.291C163.914 276.291 164.123 276.25 164.306 276.167C164.488 276.085 164.642 275.967 164.768 275.813C164.893 275.659 164.988 275.473 165.052 275.254C165.12 275.036 165.154 274.791 165.154 274.519C165.154 274.271 165.12 274.042 165.052 273.831C164.984 273.62 164.882 273.435 164.746 273.278C164.614 273.12 164.451 272.999 164.257 272.913C164.064 272.823 163.842 272.778 163.591 272.778C163.258 272.778 163.006 272.823 162.834 272.913C162.666 273.002 162.492 273.124 162.313 273.278Z" fill="black"/>
<path d="M208.87 269.169H208.956V270.012H208.87C208.343 270.012 207.903 270.098 207.548 270.27C207.194 270.438 206.913 270.666 206.705 270.952C206.497 271.235 206.347 271.554 206.254 271.908C206.164 272.263 206.12 272.623 206.12 272.988V274.137C206.12 274.485 206.161 274.792 206.243 275.061C206.326 275.326 206.438 275.55 206.582 275.732C206.725 275.915 206.886 276.053 207.065 276.146C207.248 276.239 207.437 276.286 207.634 276.286C207.863 276.286 208.068 276.243 208.247 276.157C208.426 276.067 208.576 275.944 208.698 275.786C208.823 275.625 208.918 275.435 208.982 275.217C209.047 274.998 209.079 274.758 209.079 274.497C209.079 274.264 209.05 274.041 208.993 273.826C208.936 273.607 208.848 273.414 208.73 273.246C208.612 273.074 208.463 272.939 208.284 272.843C208.109 272.743 207.899 272.692 207.656 272.692C207.38 272.692 207.122 272.76 206.882 272.896C206.646 273.029 206.451 273.204 206.297 273.423C206.146 273.638 206.061 273.872 206.039 274.126L205.513 274.121C205.563 273.72 205.656 273.378 205.792 273.095C205.932 272.809 206.104 272.576 206.308 272.397C206.515 272.214 206.746 272.082 207 272C207.258 271.914 207.53 271.871 207.817 271.871C208.207 271.871 208.544 271.944 208.827 272.091C209.11 272.238 209.342 272.435 209.525 272.682C209.708 272.925 209.842 273.201 209.928 273.509C210.017 273.813 210.062 274.126 210.062 274.449C210.062 274.818 210.01 275.163 209.906 275.485C209.802 275.808 209.647 276.09 209.439 276.334C209.235 276.577 208.982 276.767 208.682 276.903C208.381 277.039 208.032 277.107 207.634 277.107C207.212 277.107 206.843 277.021 206.528 276.85C206.213 276.674 205.951 276.441 205.744 276.151C205.536 275.861 205.38 275.539 205.276 275.185C205.173 274.83 205.121 274.47 205.121 274.105V273.638C205.121 273.086 205.176 272.546 205.287 272.016C205.398 271.486 205.59 271.006 205.862 270.576C206.138 270.146 206.519 269.805 207.006 269.55C207.493 269.296 208.114 269.169 208.87 269.169Z" fill="black"/>
<path d="M254.11 269.18V269.738L250.872 277H249.824L253.058 269.996H248.825V269.18H254.11Z" fill="black"/>
<path d="M297.987 274.884C297.987 275.36 297.876 275.765 297.654 276.098C297.435 276.427 297.138 276.678 296.762 276.85C296.39 277.021 295.969 277.107 295.5 277.107C295.031 277.107 294.608 277.021 294.232 276.85C293.856 276.678 293.559 276.427 293.341 276.098C293.122 275.765 293.013 275.36 293.013 274.884C293.013 274.572 293.072 274.288 293.19 274.03C293.312 273.768 293.482 273.541 293.701 273.348C293.923 273.154 294.184 273.006 294.485 272.902C294.789 272.794 295.124 272.741 295.489 272.741C295.969 272.741 296.397 272.834 296.773 273.02C297.149 273.203 297.444 273.455 297.659 273.777C297.878 274.1 297.987 274.468 297.987 274.884ZM296.988 274.862C296.988 274.572 296.925 274.316 296.8 274.094C296.674 273.869 296.499 273.693 296.273 273.568C296.048 273.443 295.786 273.38 295.489 273.38C295.185 273.38 294.922 273.443 294.7 273.568C294.481 273.693 294.311 273.869 294.189 274.094C294.068 274.316 294.007 274.572 294.007 274.862C294.007 275.163 294.066 275.421 294.184 275.636C294.306 275.847 294.478 276.01 294.7 276.125C294.925 276.236 295.192 276.291 295.5 276.291C295.808 276.291 296.073 276.236 296.295 276.125C296.517 276.01 296.687 275.847 296.805 275.636C296.927 275.421 296.988 275.163 296.988 274.862ZM297.804 271.215C297.804 271.595 297.704 271.937 297.503 272.241C297.303 272.546 297.029 272.785 296.682 272.961C296.334 273.136 295.94 273.224 295.5 273.224C295.052 273.224 294.653 273.136 294.302 272.961C293.955 272.785 293.683 272.546 293.486 272.241C293.289 271.937 293.19 271.595 293.19 271.215C293.19 270.761 293.289 270.374 293.486 270.055C293.686 269.736 293.96 269.493 294.308 269.325C294.655 269.156 295.051 269.072 295.495 269.072C295.942 269.072 296.34 269.156 296.687 269.325C297.034 269.493 297.306 269.736 297.503 270.055C297.704 270.374 297.804 270.761 297.804 271.215ZM296.811 271.231C296.811 270.97 296.755 270.739 296.644 270.539C296.533 270.338 296.379 270.181 296.182 270.066C295.985 269.948 295.756 269.889 295.495 269.889C295.233 269.889 295.004 269.944 294.807 270.055C294.614 270.163 294.462 270.317 294.351 270.517C294.243 270.718 294.189 270.956 294.189 271.231C294.189 271.5 294.243 271.735 294.351 271.935C294.462 272.136 294.616 272.291 294.812 272.402C295.009 272.513 295.239 272.569 295.5 272.569C295.761 272.569 295.989 272.513 296.182 272.402C296.379 272.291 296.533 272.136 296.644 271.935C296.755 271.735 296.811 271.5 296.811 271.231Z" fill="black"/>
<path d="M29.0444 311.167H29.1465C29.7194 311.167 30.1849 311.087 30.543 310.926C30.901 310.765 31.1768 310.548 31.3701 310.276C31.5635 310.004 31.696 309.698 31.7676 309.357C31.8392 309.014 31.875 308.661 31.875 308.299V307.102C31.875 306.747 31.8338 306.432 31.7515 306.156C31.6727 305.881 31.5617 305.65 31.4185 305.463C31.2788 305.277 31.1195 305.136 30.9404 305.039C30.7614 304.942 30.5716 304.894 30.3711 304.894C30.1419 304.894 29.936 304.941 29.7534 305.034C29.5744 305.123 29.4222 305.25 29.2969 305.415C29.1751 305.58 29.082 305.773 29.0176 305.995C28.9531 306.217 28.9209 306.459 28.9209 306.72C28.9209 306.953 28.9495 307.179 29.0068 307.397C29.0641 307.615 29.1519 307.812 29.27 307.988C29.3882 308.163 29.535 308.303 29.7104 308.407C29.8895 308.507 30.099 308.557 30.3389 308.557C30.5609 308.557 30.7686 308.514 30.9619 308.428C31.1589 308.339 31.3325 308.219 31.4829 308.068C31.6369 307.914 31.7586 307.741 31.8481 307.547C31.9412 307.354 31.995 307.152 32.0093 306.94H32.4819C32.4819 307.238 32.4229 307.531 32.3047 307.821C32.1901 308.108 32.029 308.369 31.8213 308.605C31.6136 308.842 31.3701 309.032 31.0908 309.175C30.8115 309.314 30.5072 309.384 30.1777 309.384C29.791 309.384 29.4562 309.309 29.1733 309.159C28.8905 309.008 28.6577 308.808 28.4751 308.557C28.2961 308.306 28.1618 308.027 28.0723 307.719C27.9863 307.408 27.9434 307.093 27.9434 306.774C27.9434 306.402 27.9953 306.052 28.0991 305.727C28.203 305.401 28.3569 305.114 28.561 304.867C28.7651 304.617 29.0176 304.421 29.3184 304.282C29.6227 304.142 29.9736 304.072 30.3711 304.072C30.8187 304.072 31.2 304.162 31.5151 304.341C31.8302 304.52 32.0863 304.76 32.2832 305.061C32.4837 305.361 32.6305 305.7 32.7236 306.076C32.8167 306.452 32.8633 306.838 32.8633 307.236V307.596C32.8633 308 32.8364 308.412 32.7827 308.831C32.7326 309.246 32.6341 309.644 32.4873 310.023C32.3441 310.403 32.1346 310.743 31.8589 311.044C31.5832 311.341 31.2233 311.577 30.7793 311.753C30.3389 311.925 29.7946 312.011 29.1465 312.011H29.0444V311.167Z" fill="black"/>
<path d="M69.728 304.137V312H68.7344V305.377L66.731 306.108V305.211L69.5723 304.137H69.728ZM77.5591 307.467V308.659C77.5591 309.3 77.5018 309.841 77.3872 310.281C77.2726 310.722 77.1079 311.076 76.8931 311.345C76.6782 311.613 76.4186 311.808 76.1143 311.93C75.8135 312.048 75.4733 312.107 75.0938 312.107C74.793 312.107 74.5155 312.07 74.2612 311.995C74.007 311.919 73.7778 311.799 73.5737 311.635C73.3732 311.466 73.2013 311.248 73.0581 310.979C72.9149 310.711 72.8057 310.385 72.7305 310.002C72.6553 309.619 72.6177 309.171 72.6177 308.659V307.467C72.6177 306.826 72.675 306.289 72.7896 305.855C72.9077 305.422 73.0742 305.075 73.2891 304.813C73.5039 304.549 73.7617 304.359 74.0625 304.244C74.3669 304.13 74.707 304.072 75.083 304.072C75.3874 304.072 75.6667 304.11 75.9209 304.185C76.1787 304.257 76.4079 304.373 76.6084 304.534C76.8089 304.692 76.979 304.903 77.1187 305.168C77.2619 305.429 77.3711 305.75 77.4463 306.129C77.5215 306.509 77.5591 306.955 77.5591 307.467ZM76.5601 308.82V307.3C76.5601 306.949 76.5386 306.641 76.4956 306.376C76.4562 306.108 76.3971 305.879 76.3184 305.689C76.2396 305.499 76.1393 305.345 76.0176 305.227C75.8994 305.109 75.7616 305.023 75.604 304.969C75.45 304.912 75.2764 304.883 75.083 304.883C74.8467 304.883 74.6372 304.928 74.4546 305.018C74.272 305.104 74.118 305.241 73.9927 305.431C73.8709 305.621 73.7778 305.87 73.7134 306.178C73.6489 306.486 73.6167 306.86 73.6167 307.3V308.82C73.6167 309.171 73.6364 309.481 73.6758 309.75C73.7188 310.018 73.7814 310.251 73.8638 310.448C73.9461 310.641 74.0464 310.8 74.1646 310.926C74.2827 311.051 74.4188 311.144 74.5728 311.205C74.7303 311.262 74.904 311.291 75.0938 311.291C75.3372 311.291 75.5503 311.244 75.7329 311.151C75.9155 311.058 76.0677 310.913 76.1895 310.716C76.3148 310.516 76.4079 310.26 76.4688 309.948C76.5296 309.633 76.5601 309.257 76.5601 308.82Z" fill="black"/>
<path d="M114.228 304.137V312H113.234V305.377L111.231 306.108V305.211L114.072 304.137H114.228ZM120.416 304.137V312H119.422V305.377L117.418 306.108V305.211L120.26 304.137H120.416Z" fill="black"/>
<path d="M158.728 304.137V312H157.734V305.377L155.731 306.108V305.211L158.572 304.137H158.728ZM166.774 311.184V312H161.655V311.286L164.217 308.434C164.532 308.083 164.776 307.785 164.948 307.542C165.123 307.295 165.245 307.075 165.313 306.881C165.385 306.684 165.42 306.484 165.42 306.28C165.42 306.022 165.367 305.789 165.259 305.582C165.155 305.37 165.001 305.202 164.797 305.077C164.593 304.951 164.346 304.889 164.056 304.889C163.709 304.889 163.419 304.957 163.186 305.093C162.957 305.225 162.785 305.411 162.67 305.651C162.556 305.891 162.499 306.167 162.499 306.479H161.505C161.505 306.038 161.602 305.635 161.795 305.27C161.988 304.905 162.275 304.615 162.654 304.4C163.034 304.181 163.501 304.072 164.056 304.072C164.55 304.072 164.973 304.16 165.324 304.335C165.675 304.507 165.943 304.751 166.129 305.066C166.319 305.377 166.414 305.743 166.414 306.162C166.414 306.391 166.375 306.624 166.296 306.86C166.221 307.093 166.115 307.325 165.979 307.558C165.847 307.791 165.691 308.02 165.512 308.246C165.336 308.471 165.148 308.693 164.948 308.912L162.853 311.184H166.774Z" fill="black"/>
<path d="M203.228 304.137V312H202.234V305.377L200.231 306.108V305.211L203.072 304.137H203.228ZM207.6 307.601H208.309C208.656 307.601 208.943 307.544 209.168 307.429C209.398 307.311 209.568 307.152 209.679 306.951C209.793 306.747 209.851 306.518 209.851 306.264C209.851 305.963 209.8 305.71 209.7 305.506C209.6 305.302 209.45 305.148 209.249 305.044C209.049 304.941 208.794 304.889 208.486 304.889C208.207 304.889 207.96 304.944 207.745 305.055C207.534 305.163 207.367 305.317 207.246 305.517C207.127 305.718 207.068 305.954 207.068 306.226H206.075C206.075 305.829 206.175 305.467 206.375 305.141C206.576 304.815 206.857 304.556 207.219 304.362C207.584 304.169 208.007 304.072 208.486 304.072C208.959 304.072 209.373 304.156 209.727 304.325C210.082 304.489 210.357 304.736 210.554 305.066C210.751 305.392 210.85 305.798 210.85 306.285C210.85 306.482 210.803 306.693 210.71 306.919C210.62 307.141 210.479 307.349 210.286 307.542C210.096 307.735 209.849 307.895 209.544 308.02C209.24 308.142 208.875 308.203 208.449 308.203H207.6V307.601ZM207.6 308.417V307.821H208.449C208.946 307.821 209.358 307.88 209.684 307.999C210.01 308.117 210.266 308.274 210.452 308.471C210.642 308.668 210.774 308.885 210.85 309.121C210.928 309.354 210.968 309.587 210.968 309.819C210.968 310.185 210.905 310.509 210.78 310.792C210.658 311.074 210.484 311.314 210.259 311.511C210.037 311.708 209.775 311.857 209.475 311.957C209.174 312.057 208.846 312.107 208.492 312.107C208.152 312.107 207.831 312.059 207.53 311.962C207.233 311.866 206.97 311.726 206.741 311.543C206.512 311.357 206.333 311.13 206.204 310.861C206.075 310.589 206.01 310.279 206.01 309.932H207.004C207.004 310.204 207.063 310.442 207.181 310.646C207.303 310.851 207.475 311.01 207.697 311.125C207.922 311.236 208.187 311.291 208.492 311.291C208.796 311.291 209.057 311.239 209.276 311.135C209.498 311.028 209.668 310.867 209.786 310.652C209.908 310.437 209.969 310.167 209.969 309.841C209.969 309.515 209.901 309.248 209.765 309.041C209.629 308.829 209.435 308.674 209.185 308.573C208.938 308.469 208.646 308.417 208.309 308.417H207.6Z" fill="black"/>
<path d="M247.728 304.137V312H246.734V305.377L244.731 306.108V305.211L247.572 304.137H247.728ZM255.935 309.368V310.185H250.285V309.599L253.787 304.18H254.598L253.728 305.748L251.413 309.368H255.935ZM254.845 304.18V312H253.851V304.18H254.845Z" fill="#141414"/>
<path d="M292.228 304.137V312H291.234V305.377L289.231 306.108V305.211L292.072 304.137H292.228ZM296.407 308.278L295.612 308.074L296.004 304.18H300.016V305.098H296.847L296.611 307.225C296.754 307.143 296.935 307.066 297.153 306.994C297.375 306.923 297.63 306.887 297.916 306.887C298.278 306.887 298.602 306.949 298.888 307.075C299.175 307.196 299.418 307.372 299.619 307.601C299.823 307.83 299.979 308.106 300.086 308.428C300.193 308.75 300.247 309.11 300.247 309.508C300.247 309.884 300.195 310.229 300.091 310.544C299.991 310.86 299.839 311.135 299.635 311.372C299.431 311.604 299.173 311.785 298.861 311.914C298.553 312.043 298.19 312.107 297.771 312.107C297.456 312.107 297.157 312.064 296.874 311.979C296.595 311.889 296.344 311.755 296.122 311.576C295.904 311.393 295.725 311.167 295.585 310.899C295.449 310.627 295.363 310.308 295.327 309.943H296.272C296.315 310.236 296.401 310.484 296.53 310.684C296.659 310.885 296.827 311.037 297.035 311.141C297.246 311.241 297.492 311.291 297.771 311.291C298.007 311.291 298.217 311.25 298.399 311.167C298.582 311.085 298.736 310.967 298.861 310.813C298.987 310.659 299.082 310.473 299.146 310.254C299.214 310.036 299.248 309.791 299.248 309.519C299.248 309.271 299.214 309.042 299.146 308.831C299.078 308.62 298.976 308.435 298.84 308.278C298.707 308.12 298.544 307.999 298.351 307.913C298.158 307.823 297.936 307.778 297.685 307.778C297.352 307.778 297.1 307.823 296.928 307.913C296.759 308.002 296.586 308.124 296.407 308.278Z" fill="black"/>
<path d="M25.228 339.137V347H24.2344V340.377L22.231 341.108V340.211L25.0723 339.137H25.228ZM31.9634 339.169H32.0493V340.012H31.9634C31.437 340.012 30.9966 340.098 30.6421 340.27C30.2876 340.438 30.0065 340.666 29.7988 340.952C29.5911 341.235 29.4408 341.554 29.3477 341.908C29.2581 342.263 29.2134 342.623 29.2134 342.988V344.137C29.2134 344.485 29.2546 344.792 29.3369 345.061C29.4193 345.326 29.5321 345.55 29.6753 345.732C29.8185 345.915 29.9797 346.053 30.1587 346.146C30.3413 346.239 30.5311 346.286 30.728 346.286C30.9572 346.286 31.1613 346.243 31.3403 346.157C31.5194 346.067 31.6698 345.944 31.7915 345.786C31.9168 345.625 32.0117 345.435 32.0762 345.217C32.1406 344.998 32.1729 344.758 32.1729 344.497C32.1729 344.264 32.1442 344.041 32.0869 343.826C32.0296 343.607 31.9419 343.414 31.8237 343.246C31.7056 343.074 31.557 342.939 31.3779 342.843C31.2025 342.743 30.993 342.692 30.7495 342.692C30.4738 342.692 30.216 342.76 29.9761 342.896C29.7397 343.029 29.5446 343.204 29.3906 343.423C29.2402 343.638 29.1543 343.872 29.1328 344.126L28.6064 344.121C28.6566 343.72 28.7497 343.378 28.8857 343.095C29.0254 342.809 29.1973 342.576 29.4014 342.397C29.609 342.214 29.84 342.082 30.0942 342C30.3521 341.914 30.6242 341.871 30.9106 341.871C31.3009 341.871 31.6375 341.944 31.9204 342.091C32.2033 342.238 32.436 342.435 32.6187 342.682C32.8013 342.925 32.9355 343.201 33.0215 343.509C33.111 343.813 33.1558 344.126 33.1558 344.449C33.1558 344.818 33.1038 345.163 33 345.485C32.8962 345.808 32.7404 346.09 32.5327 346.334C32.3286 346.577 32.0762 346.767 31.7754 346.903C31.4746 347.039 31.1255 347.107 30.728 347.107C30.3055 347.107 29.9367 347.021 29.6216 346.85C29.3065 346.674 29.0451 346.441 28.8374 346.151C28.6297 345.861 28.474 345.539 28.3701 345.185C28.2663 344.83 28.2144 344.47 28.2144 344.105V343.638C28.2144 343.086 28.2699 342.546 28.3809 342.016C28.4919 341.486 28.6834 341.006 28.9556 340.576C29.2313 340.146 29.6126 339.805 30.0996 339.55C30.5866 339.296 31.2078 339.169 31.9634 339.169Z" fill="black"/>
<path d="M69.728 339.137V347H68.7344V340.377L66.731 341.108V340.211L69.5723 339.137H69.728ZM77.7041 339.18V339.738L74.4653 347H73.418L76.6514 339.996H72.4189V339.18H77.7041Z" fill="black"/>
<path d="M114.228 339.137V347H113.234V340.377L111.231 341.108V340.211L114.072 339.137H114.228ZM122.081 344.884C122.081 345.36 121.97 345.765 121.748 346.098C121.529 346.427 121.232 346.678 120.856 346.85C120.484 347.021 120.063 347.107 119.594 347.107C119.125 347.107 118.702 347.021 118.326 346.85C117.95 346.678 117.653 346.427 117.435 346.098C117.216 345.765 117.107 345.36 117.107 344.884C117.107 344.572 117.166 344.288 117.284 344.03C117.406 343.768 117.576 343.541 117.794 343.348C118.016 343.154 118.278 343.006 118.579 342.902C118.883 342.794 119.218 342.741 119.583 342.741C120.063 342.741 120.491 342.834 120.867 343.02C121.243 343.203 121.538 343.455 121.753 343.777C121.971 344.1 122.081 344.468 122.081 344.884ZM121.082 344.862C121.082 344.572 121.019 344.316 120.894 344.094C120.768 343.869 120.593 343.693 120.367 343.568C120.142 343.443 119.88 343.38 119.583 343.38C119.279 343.38 119.015 343.443 118.793 343.568C118.575 343.693 118.405 343.869 118.283 344.094C118.161 344.316 118.101 344.572 118.101 344.862C118.101 345.163 118.16 345.421 118.278 345.636C118.4 345.847 118.571 346.01 118.793 346.125C119.019 346.236 119.286 346.291 119.594 346.291C119.902 346.291 120.167 346.236 120.389 346.125C120.611 346.01 120.781 345.847 120.899 345.636C121.021 345.421 121.082 345.163 121.082 344.862ZM121.898 341.215C121.898 341.595 121.798 341.937 121.597 342.241C121.397 342.546 121.123 342.785 120.775 342.961C120.428 343.136 120.034 343.224 119.594 343.224C119.146 343.224 118.747 343.136 118.396 342.961C118.049 342.785 117.777 342.546 117.58 342.241C117.383 341.937 117.284 341.595 117.284 341.215C117.284 340.761 117.383 340.374 117.58 340.055C117.78 339.736 118.054 339.493 118.401 339.325C118.749 339.156 119.144 339.072 119.588 339.072C120.036 339.072 120.433 339.156 120.781 339.325C121.128 339.493 121.4 339.736 121.597 340.055C121.798 340.374 121.898 340.761 121.898 341.215ZM120.904 341.231C120.904 340.97 120.849 340.739 120.738 340.539C120.627 340.338 120.473 340.181 120.276 340.066C120.079 339.948 119.85 339.889 119.588 339.889C119.327 339.889 119.098 339.944 118.901 340.055C118.708 340.163 118.555 340.317 118.444 340.517C118.337 340.718 118.283 340.956 118.283 341.231C118.283 341.5 118.337 341.735 118.444 341.935C118.555 342.136 118.709 342.291 118.906 342.402C119.103 342.513 119.332 342.569 119.594 342.569C119.855 342.569 120.083 342.513 120.276 342.402C120.473 342.291 120.627 342.136 120.738 341.935C120.849 341.735 120.904 341.5 120.904 341.231Z" fill="black"/>
<path d="M158.728 339.137V347H157.734V340.377L155.731 341.108V340.211L158.572 339.137H158.728ZM162.638 346.167H162.74C163.313 346.167 163.779 346.087 164.137 345.926C164.495 345.765 164.771 345.548 164.964 345.276C165.157 345.004 165.29 344.698 165.361 344.357C165.433 344.014 165.469 343.661 165.469 343.299V342.102C165.469 341.747 165.428 341.432 165.345 341.156C165.266 340.881 165.155 340.65 165.012 340.463C164.873 340.277 164.713 340.136 164.534 340.039C164.355 339.942 164.165 339.894 163.965 339.894C163.736 339.894 163.53 339.941 163.347 340.034C163.168 340.123 163.016 340.25 162.891 340.415C162.769 340.58 162.676 340.773 162.611 340.995C162.547 341.217 162.515 341.459 162.515 341.72C162.515 341.953 162.543 342.179 162.601 342.397C162.658 342.615 162.746 342.812 162.864 342.988C162.982 343.163 163.129 343.303 163.304 343.407C163.483 343.507 163.693 343.557 163.933 343.557C164.155 343.557 164.362 343.514 164.556 343.428C164.753 343.339 164.926 343.219 165.077 343.068C165.231 342.914 165.352 342.741 165.442 342.547C165.535 342.354 165.589 342.152 165.603 341.94H166.076C166.076 342.238 166.017 342.531 165.898 342.821C165.784 343.108 165.623 343.369 165.415 343.605C165.207 343.842 164.964 344.032 164.685 344.175C164.405 344.314 164.101 344.384 163.771 344.384C163.385 344.384 163.05 344.309 162.767 344.159C162.484 344.008 162.251 343.808 162.069 343.557C161.89 343.306 161.756 343.027 161.666 342.719C161.58 342.408 161.537 342.093 161.537 341.774C161.537 341.402 161.589 341.052 161.693 340.727C161.797 340.401 161.951 340.114 162.155 339.867C162.359 339.617 162.611 339.421 162.912 339.282C163.216 339.142 163.567 339.072 163.965 339.072C164.412 339.072 164.794 339.162 165.109 339.341C165.424 339.52 165.68 339.76 165.877 340.061C166.077 340.361 166.224 340.7 166.317 341.076C166.41 341.452 166.457 341.838 166.457 342.236V342.596C166.457 343 166.43 343.412 166.376 343.831C166.326 344.246 166.228 344.644 166.081 345.023C165.938 345.403 165.728 345.743 165.453 346.044C165.177 346.341 164.817 346.577 164.373 346.753C163.933 346.925 163.388 347.011 162.74 347.011H162.638V346.167Z" fill="black"/>
<path d="M205.086 346.184V347H199.968V346.286L202.53 343.434C202.845 343.083 203.088 342.785 203.26 342.542C203.436 342.295 203.557 342.075 203.625 341.881C203.697 341.684 203.733 341.484 203.733 341.28C203.733 341.022 203.679 340.789 203.572 340.582C203.468 340.37 203.314 340.202 203.11 340.077C202.906 339.951 202.659 339.889 202.369 339.889C202.021 339.889 201.731 339.957 201.499 340.093C201.269 340.225 201.097 340.411 200.983 340.651C200.868 340.891 200.811 341.167 200.811 341.479H199.817C199.817 341.038 199.914 340.635 200.107 340.27C200.301 339.905 200.587 339.615 200.967 339.4C201.346 339.181 201.814 339.072 202.369 339.072C202.863 339.072 203.285 339.16 203.636 339.335C203.987 339.507 204.256 339.751 204.442 340.066C204.632 340.377 204.727 340.743 204.727 341.162C204.727 341.391 204.687 341.624 204.608 341.86C204.533 342.093 204.428 342.325 204.292 342.558C204.159 342.791 204.003 343.02 203.824 343.246C203.649 343.471 203.461 343.693 203.26 343.912L201.166 346.184H205.086ZM211.059 342.467V343.659C211.059 344.3 211.002 344.841 210.887 345.281C210.773 345.722 210.608 346.076 210.393 346.345C210.178 346.613 209.919 346.808 209.614 346.93C209.313 347.048 208.973 347.107 208.594 347.107C208.293 347.107 208.015 347.07 207.761 346.995C207.507 346.919 207.278 346.799 207.074 346.635C206.873 346.466 206.701 346.248 206.558 345.979C206.415 345.711 206.306 345.385 206.23 345.002C206.155 344.619 206.118 344.171 206.118 343.659V342.467C206.118 341.826 206.175 341.289 206.29 340.855C206.408 340.422 206.574 340.075 206.789 339.813C207.004 339.549 207.262 339.359 207.562 339.244C207.867 339.13 208.207 339.072 208.583 339.072C208.887 339.072 209.167 339.11 209.421 339.185C209.679 339.257 209.908 339.373 210.108 339.534C210.309 339.692 210.479 339.903 210.619 340.168C210.762 340.429 210.871 340.75 210.946 341.129C211.021 341.509 211.059 341.955 211.059 342.467ZM210.06 343.82V342.3C210.06 341.949 210.039 341.641 209.996 341.376C209.956 341.108 209.897 340.879 209.818 340.689C209.74 340.499 209.639 340.345 209.518 340.227C209.399 340.109 209.262 340.023 209.104 339.969C208.95 339.912 208.776 339.883 208.583 339.883C208.347 339.883 208.137 339.928 207.955 340.018C207.772 340.104 207.618 340.241 207.493 340.431C207.371 340.621 207.278 340.87 207.213 341.178C207.149 341.486 207.117 341.86 207.117 342.3V343.82C207.117 344.171 207.136 344.481 207.176 344.75C207.219 345.018 207.281 345.251 207.364 345.448C207.446 345.641 207.546 345.8 207.665 345.926C207.783 346.051 207.919 346.144 208.073 346.205C208.23 346.262 208.404 346.291 208.594 346.291C208.837 346.291 209.05 346.244 209.233 346.151C209.416 346.058 209.568 345.913 209.689 345.716C209.815 345.516 209.908 345.26 209.969 344.948C210.03 344.633 210.06 344.257 210.06 343.82Z" fill="black"/>
<path d="M249.586 346.184V347H244.468V346.286L247.03 343.434C247.345 343.083 247.588 342.785 247.76 342.542C247.936 342.295 248.057 342.075 248.125 341.881C248.197 341.684 248.233 341.484 248.233 341.28C248.233 341.022 248.179 340.789 248.072 340.582C247.968 340.37 247.814 340.202 247.61 340.077C247.406 339.951 247.159 339.889 246.869 339.889C246.521 339.889 246.231 339.957 245.999 340.093C245.769 340.225 245.597 340.411 245.483 340.651C245.368 340.891 245.311 341.167 245.311 341.479H244.317C244.317 341.038 244.414 340.635 244.607 340.27C244.801 339.905 245.087 339.615 245.467 339.4C245.846 339.181 246.314 339.072 246.869 339.072C247.363 339.072 247.785 339.16 248.136 339.335C248.487 339.507 248.756 339.751 248.942 340.066C249.132 340.377 249.227 340.743 249.227 341.162C249.227 341.391 249.187 341.624 249.108 341.86C249.033 342.093 248.928 342.325 248.792 342.558C248.659 342.791 248.503 343.02 248.324 343.246C248.149 343.471 247.961 343.693 247.76 343.912L245.666 346.184H249.586ZM253.916 339.137V347H252.922V340.377L250.918 341.108V340.211L253.76 339.137H253.916Z" fill="white"/>
<path d="M294.086 346.184V347H288.968V346.286L291.53 343.434C291.845 343.083 292.088 342.785 292.26 342.542C292.436 342.295 292.557 342.075 292.625 341.881C292.697 341.684 292.733 341.484 292.733 341.28C292.733 341.022 292.679 340.789 292.572 340.582C292.468 340.37 292.314 340.202 292.11 340.077C291.906 339.951 291.659 339.889 291.369 339.889C291.021 339.889 290.731 339.957 290.499 340.093C290.269 340.225 290.097 340.411 289.983 340.651C289.868 340.891 289.811 341.167 289.811 341.479H288.817C288.817 341.038 288.914 340.635 289.107 340.27C289.301 339.905 289.587 339.615 289.967 339.4C290.346 339.181 290.814 339.072 291.369 339.072C291.863 339.072 292.285 339.16 292.636 339.335C292.987 339.507 293.256 339.751 293.442 340.066C293.632 340.377 293.727 340.743 293.727 341.162C293.727 341.391 293.687 341.624 293.608 341.86C293.533 342.093 293.428 342.325 293.292 342.558C293.159 342.791 293.003 343.02 292.824 343.246C292.649 343.471 292.461 343.693 292.26 343.912L290.166 346.184H294.086ZM300.274 346.184V347H295.155V346.286L297.717 343.434C298.032 343.083 298.276 342.785 298.448 342.542C298.623 342.295 298.745 342.075 298.813 341.881C298.885 341.684 298.92 341.484 298.92 341.28C298.92 341.022 298.867 340.789 298.759 340.582C298.655 340.37 298.501 340.202 298.297 340.077C298.093 339.951 297.846 339.889 297.556 339.889C297.209 339.889 296.919 339.957 296.686 340.093C296.457 340.225 296.285 340.411 296.17 340.651C296.056 340.891 295.999 341.167 295.999 341.479H295.005C295.005 341.038 295.102 340.635 295.295 340.27C295.488 339.905 295.775 339.615 296.154 339.4C296.534 339.181 297.001 339.072 297.556 339.072C298.05 339.072 298.473 339.16 298.824 339.335C299.175 339.507 299.443 339.751 299.629 340.066C299.819 340.377 299.914 340.743 299.914 341.162C299.914 341.391 299.875 341.624 299.796 341.86C299.721 342.093 299.615 342.325 299.479 342.558C299.347 342.791 299.191 343.02 299.012 343.246C298.836 343.471 298.648 343.693 298.448 343.912L296.353 346.184H300.274Z" fill="#C8CBCA"/>
<path d="M27.0864 381.184V382H21.9678V381.286L24.5298 378.434C24.8449 378.083 25.0884 377.785 25.2603 377.542C25.4357 377.295 25.5575 377.075 25.6255 376.881C25.6971 376.684 25.7329 376.484 25.7329 376.28C25.7329 376.022 25.6792 375.789 25.5718 375.582C25.4679 375.37 25.314 375.202 25.1099 375.077C24.9058 374.951 24.6587 374.889 24.3687 374.889C24.0213 374.889 23.7313 374.957 23.4985 375.093C23.2694 375.225 23.0975 375.411 22.9829 375.651C22.8683 375.891 22.811 376.167 22.811 376.479H21.8174C21.8174 376.038 21.9141 375.635 22.1074 375.27C22.3008 374.905 22.5872 374.615 22.9668 374.4C23.3464 374.181 23.8136 374.072 24.3687 374.072C24.8628 374.072 25.2853 374.16 25.6362 374.335C25.9871 374.507 26.2557 374.751 26.4419 375.066C26.6317 375.377 26.7266 375.743 26.7266 376.162C26.7266 376.391 26.6872 376.624 26.6084 376.86C26.5332 377.093 26.4276 377.325 26.2915 377.558C26.159 377.791 26.0033 378.02 25.8242 378.246C25.6488 378.471 25.4608 378.693 25.2603 378.912L23.1655 381.184H27.0864ZM29.6001 377.601H30.3091C30.6564 377.601 30.9429 377.544 31.1685 377.429C31.3976 377.311 31.5677 377.152 31.6787 376.951C31.7933 376.747 31.8506 376.518 31.8506 376.264C31.8506 375.963 31.8005 375.71 31.7002 375.506C31.5999 375.302 31.4495 375.148 31.249 375.044C31.0485 374.941 30.7943 374.889 30.4863 374.889C30.207 374.889 29.96 374.944 29.7451 375.055C29.5339 375.163 29.3674 375.317 29.2456 375.517C29.1274 375.718 29.0684 375.954 29.0684 376.226H28.0747C28.0747 375.829 28.175 375.467 28.3755 375.141C28.576 374.815 28.8571 374.556 29.2188 374.362C29.584 374.169 30.0065 374.072 30.4863 374.072C30.959 374.072 31.3726 374.156 31.7271 374.325C32.0815 374.489 32.3573 374.736 32.5542 375.066C32.7511 375.392 32.8496 375.798 32.8496 376.285C32.8496 376.482 32.8031 376.693 32.71 376.919C32.6204 377.141 32.479 377.349 32.2856 377.542C32.0959 377.735 31.8488 377.895 31.5444 378.02C31.2401 378.142 30.8748 378.203 30.4487 378.203H29.6001V377.601ZM29.6001 378.417V377.821H30.4487C30.9465 377.821 31.3582 377.88 31.6841 377.999C32.0099 378.117 32.266 378.274 32.4521 378.471C32.6419 378.668 32.7744 378.885 32.8496 379.121C32.9284 379.354 32.9678 379.587 32.9678 379.819C32.9678 380.185 32.9051 380.509 32.7798 380.792C32.658 381.074 32.4844 381.314 32.2588 381.511C32.0368 381.708 31.7754 381.857 31.4746 381.957C31.1738 382.057 30.8462 382.107 30.4917 382.107C30.1515 382.107 29.8311 382.059 29.5303 381.962C29.2331 381.866 28.9699 381.726 28.7407 381.543C28.5116 381.357 28.3325 381.13 28.2036 380.861C28.0747 380.589 28.0103 380.279 28.0103 379.932H29.0039C29.0039 380.204 29.063 380.442 29.1812 380.646C29.3029 380.851 29.4748 381.01 29.6968 381.125C29.9224 381.236 30.1873 381.291 30.4917 381.291C30.7961 381.291 31.0575 381.239 31.2759 381.135C31.4979 381.028 31.668 380.867 31.7861 380.652C31.9079 380.437 31.9688 380.167 31.9688 379.841C31.9688 379.515 31.9007 379.248 31.7646 379.041C31.6286 378.829 31.4352 378.674 31.1846 378.573C30.9375 378.469 30.6457 378.417 30.3091 378.417H29.6001Z" fill="#C8CBCA"/>
<path d="M71.5864 381.184V382H66.4678V381.286L69.0298 378.434C69.3449 378.083 69.5884 377.785 69.7603 377.542C69.9357 377.295 70.0575 377.075 70.1255 376.881C70.1971 376.684 70.2329 376.484 70.2329 376.28C70.2329 376.022 70.1792 375.789 70.0718 375.582C69.9679 375.37 69.814 375.202 69.6099 375.077C69.4058 374.951 69.1587 374.889 68.8687 374.889C68.5213 374.889 68.2313 374.957 67.9985 375.093C67.7694 375.225 67.5975 375.411 67.4829 375.651C67.3683 375.891 67.311 376.167 67.311 376.479H66.3174C66.3174 376.038 66.4141 375.635 66.6074 375.27C66.8008 374.905 67.0872 374.615 67.4668 374.4C67.8464 374.181 68.3136 374.072 68.8687 374.072C69.3628 374.072 69.7853 374.16 70.1362 374.335C70.4871 374.507 70.7557 374.751 70.9419 375.066C71.1317 375.377 71.2266 375.743 71.2266 376.162C71.2266 376.391 71.1872 376.624 71.1084 376.86C71.0332 377.093 70.9276 377.325 70.7915 377.558C70.659 377.791 70.5033 378.02 70.3242 378.246C70.1488 378.471 69.9608 378.693 69.7603 378.912L67.6655 381.184H71.5864ZM77.9351 379.368V380.185H72.2847V379.599L75.7866 374.18H76.5977L75.7275 375.748L73.4126 379.368H77.9351ZM76.8447 374.18V382H75.8511V374.18H76.8447Z" fill="#C8CBCA"/>
<path d="M116.086 381.184V382H110.968V381.286L113.53 378.434C113.845 378.083 114.088 377.785 114.26 377.542C114.436 377.295 114.557 377.075 114.625 376.881C114.697 376.684 114.733 376.484 114.733 376.28C114.733 376.022 114.679 375.789 114.572 375.582C114.468 375.37 114.314 375.202 114.11 375.077C113.906 374.951 113.659 374.889 113.369 374.889C113.021 374.889 112.731 374.957 112.499 375.093C112.269 375.225 112.097 375.411 111.983 375.651C111.868 375.891 111.811 376.167 111.811 376.479H110.817C110.817 376.038 110.914 375.635 111.107 375.27C111.301 374.905 111.587 374.615 111.967 374.4C112.346 374.181 112.814 374.072 113.369 374.072C113.863 374.072 114.285 374.16 114.636 374.335C114.987 374.507 115.256 374.751 115.442 375.066C115.632 375.377 115.727 375.743 115.727 376.162C115.727 376.391 115.687 376.624 115.608 376.86C115.533 377.093 115.428 377.325 115.292 377.558C115.159 377.791 115.003 378.02 114.824 378.246C114.649 378.471 114.461 378.693 114.26 378.912L112.166 381.184H116.086ZM118.407 378.278L117.612 378.074L118.004 374.18H122.016V375.098H118.847L118.611 377.225C118.754 377.143 118.935 377.066 119.153 376.994C119.375 376.923 119.63 376.887 119.916 376.887C120.278 376.887 120.602 376.949 120.888 377.075C121.175 377.196 121.418 377.372 121.619 377.601C121.823 377.83 121.979 378.106 122.086 378.428C122.193 378.75 122.247 379.11 122.247 379.508C122.247 379.884 122.195 380.229 122.091 380.544C121.991 380.86 121.839 381.135 121.635 381.372C121.431 381.604 121.173 381.785 120.861 381.914C120.553 382.043 120.19 382.107 119.771 382.107C119.456 382.107 119.157 382.064 118.874 381.979C118.595 381.889 118.344 381.755 118.122 381.576C117.904 381.393 117.725 381.167 117.585 380.899C117.449 380.627 117.363 380.308 117.327 379.943H118.272C118.315 380.236 118.401 380.484 118.53 380.684C118.659 380.885 118.827 381.037 119.035 381.141C119.246 381.241 119.492 381.291 119.771 381.291C120.007 381.291 120.217 381.25 120.399 381.167C120.582 381.085 120.736 380.967 120.861 380.813C120.987 380.659 121.082 380.473 121.146 380.254C121.214 380.036 121.248 379.791 121.248 379.519C121.248 379.271 121.214 379.042 121.146 378.831C121.078 378.62 120.976 378.435 120.84 378.278C120.707 378.12 120.544 377.999 120.351 377.913C120.158 377.823 119.936 377.778 119.685 377.778C119.352 377.778 119.1 377.823 118.928 377.913C118.759 378.002 118.586 378.124 118.407 378.278Z" fill="#C8CBCA"/>
<path d="M160.586 381.184V382H155.468V381.286L158.03 378.434C158.345 378.083 158.588 377.785 158.76 377.542C158.936 377.295 159.057 377.075 159.125 376.881C159.197 376.684 159.233 376.484 159.233 376.28C159.233 376.022 159.179 375.789 159.072 375.582C158.968 375.37 158.814 375.202 158.61 375.077C158.406 374.951 158.159 374.889 157.869 374.889C157.521 374.889 157.231 374.957 156.999 375.093C156.769 375.225 156.597 375.411 156.483 375.651C156.368 375.891 156.311 376.167 156.311 376.479H155.317C155.317 376.038 155.414 375.635 155.607 375.27C155.801 374.905 156.087 374.615 156.467 374.4C156.846 374.181 157.314 374.072 157.869 374.072C158.363 374.072 158.785 374.16 159.136 374.335C159.487 374.507 159.756 374.751 159.942 375.066C160.132 375.377 160.227 375.743 160.227 376.162C160.227 376.391 160.187 376.624 160.108 376.86C160.033 377.093 159.928 377.325 159.792 377.558C159.659 377.791 159.503 378.02 159.324 378.246C159.149 378.471 158.961 378.693 158.76 378.912L156.666 381.184H160.586ZM165.463 374.169H165.549V375.012H165.463C164.937 375.012 164.497 375.098 164.142 375.27C163.788 375.438 163.507 375.666 163.299 375.952C163.091 376.235 162.941 376.554 162.848 376.908C162.758 377.263 162.713 377.623 162.713 377.988V379.137C162.713 379.485 162.755 379.792 162.837 380.061C162.919 380.326 163.032 380.55 163.175 380.732C163.319 380.915 163.48 381.053 163.659 381.146C163.841 381.239 164.031 381.286 164.228 381.286C164.457 381.286 164.661 381.243 164.84 381.157C165.019 381.067 165.17 380.944 165.292 380.786C165.417 380.625 165.512 380.435 165.576 380.217C165.641 379.998 165.673 379.758 165.673 379.497C165.673 379.264 165.644 379.041 165.587 378.826C165.53 378.607 165.442 378.414 165.324 378.246C165.206 378.074 165.057 377.939 164.878 377.843C164.702 377.743 164.493 377.692 164.25 377.692C163.974 377.692 163.716 377.76 163.476 377.896C163.24 378.029 163.045 378.204 162.891 378.423C162.74 378.638 162.654 378.872 162.633 379.126L162.106 379.121C162.157 378.72 162.25 378.378 162.386 378.095C162.525 377.809 162.697 377.576 162.901 377.397C163.109 377.214 163.34 377.082 163.594 377C163.852 376.914 164.124 376.871 164.411 376.871C164.801 376.871 165.138 376.944 165.42 377.091C165.703 377.238 165.936 377.435 166.119 377.682C166.301 377.925 166.436 378.201 166.521 378.509C166.611 378.813 166.656 379.126 166.656 379.449C166.656 379.818 166.604 380.163 166.5 380.485C166.396 380.808 166.24 381.09 166.033 381.334C165.829 381.577 165.576 381.767 165.275 381.903C164.975 382.039 164.625 382.107 164.228 382.107C163.806 382.107 163.437 382.021 163.122 381.85C162.806 381.674 162.545 381.441 162.337 381.151C162.13 380.861 161.974 380.539 161.87 380.185C161.766 379.83 161.714 379.47 161.714 379.105V378.638C161.714 378.086 161.77 377.546 161.881 377.016C161.992 376.486 162.183 376.006 162.456 375.576C162.731 375.146 163.113 374.805 163.6 374.55C164.087 374.296 164.708 374.169 165.463 374.169Z" fill="#C8CBCA"/>
<path d="M205.086 381.184V382H199.968V381.286L202.53 378.434C202.845 378.083 203.088 377.785 203.26 377.542C203.436 377.295 203.557 377.075 203.625 376.881C203.697 376.684 203.733 376.484 203.733 376.28C203.733 376.022 203.679 375.789 203.572 375.582C203.468 375.37 203.314 375.202 203.11 375.077C202.906 374.951 202.659 374.889 202.369 374.889C202.021 374.889 201.731 374.957 201.499 375.093C201.269 375.225 201.097 375.411 200.983 375.651C200.868 375.891 200.811 376.167 200.811 376.479H199.817C199.817 376.038 199.914 375.635 200.107 375.27C200.301 374.905 200.587 374.615 200.967 374.4C201.346 374.181 201.814 374.072 202.369 374.072C202.863 374.072 203.285 374.16 203.636 374.335C203.987 374.507 204.256 374.751 204.442 375.066C204.632 375.377 204.727 375.743 204.727 376.162C204.727 376.391 204.687 376.624 204.608 376.86C204.533 377.093 204.428 377.325 204.292 377.558C204.159 377.791 204.003 378.02 203.824 378.246C203.649 378.471 203.461 378.693 203.26 378.912L201.166 381.184H205.086ZM211.204 374.18V374.738L207.965 382H206.918L210.151 374.996H205.919V374.18H211.204Z" fill="#C8CBCA"/>
<path d="M249.586 381.184V382H244.468V381.286L247.03 378.434C247.345 378.083 247.588 377.785 247.76 377.542C247.936 377.295 248.057 377.075 248.125 376.881C248.197 376.684 248.233 376.484 248.233 376.28C248.233 376.022 248.179 375.789 248.072 375.582C247.968 375.37 247.814 375.202 247.61 375.077C247.406 374.951 247.159 374.889 246.869 374.889C246.521 374.889 246.231 374.957 245.999 375.093C245.769 375.225 245.597 375.411 245.483 375.651C245.368 375.891 245.311 376.167 245.311 376.479H244.317C244.317 376.038 244.414 375.635 244.607 375.27C244.801 374.905 245.087 374.615 245.467 374.4C245.846 374.181 246.314 374.072 246.869 374.072C247.363 374.072 247.785 374.16 248.136 374.335C248.487 374.507 248.756 374.751 248.942 375.066C249.132 375.377 249.227 375.743 249.227 376.162C249.227 376.391 249.187 376.624 249.108 376.86C249.033 377.093 248.928 377.325 248.792 377.558C248.659 377.791 248.503 378.02 248.324 378.246C248.149 378.471 247.961 378.693 247.76 378.912L245.666 381.184H249.586ZM255.581 379.884C255.581 380.36 255.47 380.765 255.248 381.098C255.029 381.427 254.732 381.678 254.356 381.85C253.984 382.021 253.563 382.107 253.094 382.107C252.625 382.107 252.202 382.021 251.826 381.85C251.45 381.678 251.153 381.427 250.935 381.098C250.716 380.765 250.607 380.36 250.607 379.884C250.607 379.572 250.666 379.288 250.784 379.03C250.906 378.768 251.076 378.541 251.294 378.348C251.516 378.154 251.778 378.006 252.079 377.902C252.383 377.794 252.718 377.741 253.083 377.741C253.563 377.741 253.991 377.834 254.367 378.02C254.743 378.203 255.038 378.455 255.253 378.777C255.471 379.1 255.581 379.468 255.581 379.884ZM254.582 379.862C254.582 379.572 254.519 379.316 254.394 379.094C254.268 378.869 254.093 378.693 253.867 378.568C253.642 378.443 253.38 378.38 253.083 378.38C252.779 378.38 252.515 378.443 252.293 378.568C252.075 378.693 251.905 378.869 251.783 379.094C251.661 379.316 251.601 379.572 251.601 379.862C251.601 380.163 251.66 380.421 251.778 380.636C251.9 380.847 252.071 381.01 252.293 381.125C252.519 381.236 252.786 381.291 253.094 381.291C253.402 381.291 253.667 381.236 253.889 381.125C254.111 381.01 254.281 380.847 254.399 380.636C254.521 380.421 254.582 380.163 254.582 379.862ZM255.398 376.215C255.398 376.595 255.298 376.937 255.097 377.241C254.897 377.546 254.623 377.785 254.275 377.961C253.928 378.136 253.534 378.224 253.094 378.224C252.646 378.224 252.247 378.136 251.896 377.961C251.549 377.785 251.277 377.546 251.08 377.241C250.883 376.937 250.784 376.595 250.784 376.215C250.784 375.761 250.883 375.374 251.08 375.055C251.28 374.736 251.554 374.493 251.901 374.325C252.249 374.156 252.644 374.072 253.088 374.072C253.536 374.072 253.933 374.156 254.281 374.325C254.628 374.493 254.9 374.736 255.097 375.055C255.298 375.374 255.398 375.761 255.398 376.215ZM254.404 376.231C254.404 375.97 254.349 375.739 254.238 375.539C254.127 375.338 253.973 375.181 253.776 375.066C253.579 374.948 253.35 374.889 253.088 374.889C252.827 374.889 252.598 374.944 252.401 375.055C252.208 375.163 252.055 375.317 251.944 375.517C251.837 375.718 251.783 375.956 251.783 376.231C251.783 376.5 251.837 376.735 251.944 376.935C252.055 377.136 252.209 377.291 252.406 377.402C252.603 377.513 252.832 377.569 253.094 377.569C253.355 377.569 253.583 377.513 253.776 377.402C253.973 377.291 254.127 377.136 254.238 376.935C254.349 376.735 254.404 376.5 254.404 376.231Z" fill="#C8CBCA"/>
<path d="M294.086 381.184V382H288.968V381.286L291.53 378.434C291.845 378.083 292.088 377.785 292.26 377.542C292.436 377.295 292.557 377.075 292.625 376.881C292.697 376.684 292.733 376.484 292.733 376.28C292.733 376.022 292.679 375.789 292.572 375.582C292.468 375.37 292.314 375.202 292.11 375.077C291.906 374.951 291.659 374.889 291.369 374.889C291.021 374.889 290.731 374.957 290.499 375.093C290.269 375.225 290.097 375.411 289.983 375.651C289.868 375.891 289.811 376.167 289.811 376.479H288.817C288.817 376.038 288.914 375.635 289.107 375.27C289.301 374.905 289.587 374.615 289.967 374.4C290.346 374.181 290.814 374.072 291.369 374.072C291.863 374.072 292.285 374.16 292.636 374.335C292.987 374.507 293.256 374.751 293.442 375.066C293.632 375.377 293.727 375.743 293.727 376.162C293.727 376.391 293.687 376.624 293.608 376.86C293.533 377.093 293.428 377.325 293.292 377.558C293.159 377.791 293.003 378.02 292.824 378.246C292.649 378.471 292.461 378.693 292.26 378.912L290.166 381.184H294.086ZM296.138 381.167H296.24C296.813 381.167 297.279 381.087 297.637 380.926C297.995 380.765 298.271 380.548 298.464 380.276C298.657 380.004 298.79 379.698 298.861 379.357C298.933 379.014 298.969 378.661 298.969 378.299V377.102C298.969 376.747 298.928 376.432 298.845 376.156C298.766 375.881 298.655 375.65 298.512 375.463C298.373 375.277 298.213 375.136 298.034 375.039C297.855 374.942 297.665 374.894 297.465 374.894C297.236 374.894 297.03 374.941 296.847 375.034C296.668 375.123 296.516 375.25 296.391 375.415C296.269 375.58 296.176 375.773 296.111 375.995C296.047 376.217 296.015 376.459 296.015 376.72C296.015 376.953 296.043 377.179 296.101 377.397C296.158 377.615 296.246 377.812 296.364 377.988C296.482 378.163 296.629 378.303 296.804 378.407C296.983 378.507 297.193 378.557 297.433 378.557C297.655 378.557 297.862 378.514 298.056 378.428C298.253 378.339 298.426 378.219 298.577 378.068C298.731 377.914 298.852 377.741 298.942 377.547C299.035 377.354 299.089 377.152 299.103 376.94H299.576C299.576 377.238 299.517 377.531 299.398 377.821C299.284 378.108 299.123 378.369 298.915 378.605C298.707 378.842 298.464 379.032 298.185 379.175C297.905 379.314 297.601 379.384 297.271 379.384C296.885 379.384 296.55 379.309 296.267 379.159C295.984 379.008 295.751 378.808 295.569 378.557C295.39 378.306 295.256 378.027 295.166 377.719C295.08 377.408 295.037 377.093 295.037 376.774C295.037 376.402 295.089 376.052 295.193 375.727C295.297 375.401 295.451 375.114 295.655 374.867C295.859 374.617 296.111 374.421 296.412 374.282C296.716 374.142 297.067 374.072 297.465 374.072C297.912 374.072 298.294 374.162 298.609 374.341C298.924 374.52 299.18 374.76 299.377 375.061C299.577 375.361 299.724 375.7 299.817 376.076C299.91 376.452 299.957 376.838 299.957 377.236V377.596C299.957 378 299.93 378.412 299.876 378.831C299.826 379.246 299.728 379.644 299.581 380.023C299.438 380.403 299.228 380.743 298.953 381.044C298.677 381.341 298.317 381.577 297.873 381.753C297.433 381.925 296.888 382.011 296.24 382.011H296.138V381.167Z" fill="#C8CBCA"/>
<path d="M22.4126 412.601H23.1216C23.4689 412.601 23.7554 412.544 23.981 412.429C24.2101 412.311 24.3802 412.152 24.4912 411.951C24.6058 411.747 24.6631 411.518 24.6631 411.264C24.6631 410.963 24.613 410.71 24.5127 410.506C24.4124 410.302 24.262 410.148 24.0615 410.044C23.861 409.941 23.6068 409.889 23.2988 409.889C23.0195 409.889 22.7725 409.944 22.5576 410.055C22.3464 410.163 22.1799 410.317 22.0581 410.517C21.9399 410.718 21.8809 410.954 21.8809 411.226H20.8872C20.8872 410.829 20.9875 410.467 21.188 410.141C21.3885 409.815 21.6696 409.556 22.0312 409.362C22.3965 409.169 22.819 409.072 23.2988 409.072C23.7715 409.072 24.1851 409.156 24.5396 409.325C24.894 409.489 25.1698 409.736 25.3667 410.066C25.5636 410.392 25.6621 410.798 25.6621 411.285C25.6621 411.482 25.6156 411.693 25.5225 411.919C25.4329 412.141 25.2915 412.349 25.0981 412.542C24.9084 412.735 24.6613 412.895 24.3569 413.02C24.0526 413.142 23.6873 413.203 23.2612 413.203H22.4126V412.601ZM22.4126 413.417V412.821H23.2612C23.759 412.821 24.1707 412.88 24.4966 412.999C24.8224 413.117 25.0785 413.274 25.2646 413.471C25.4544 413.668 25.5869 413.885 25.6621 414.121C25.7409 414.354 25.7803 414.587 25.7803 414.819C25.7803 415.185 25.7176 415.509 25.5923 415.792C25.4705 416.074 25.2969 416.314 25.0713 416.511C24.8493 416.708 24.5879 416.857 24.2871 416.957C23.9863 417.057 23.6587 417.107 23.3042 417.107C22.964 417.107 22.6436 417.059 22.3428 416.962C22.0456 416.866 21.7824 416.726 21.5532 416.543C21.3241 416.357 21.145 416.13 21.0161 415.861C20.8872 415.589 20.8228 415.279 20.8228 414.932H21.8164C21.8164 415.204 21.8755 415.442 21.9937 415.646C22.1154 415.851 22.2873 416.01 22.5093 416.125C22.7349 416.236 22.9998 416.291 23.3042 416.291C23.6086 416.291 23.87 416.239 24.0884 416.135C24.3104 416.028 24.4805 415.867 24.5986 415.652C24.7204 415.437 24.7812 415.167 24.7812 414.841C24.7812 414.515 24.7132 414.248 24.5771 414.041C24.4411 413.829 24.2477 413.674 23.9971 413.573C23.75 413.469 23.4582 413.417 23.1216 413.417H22.4126ZM32.0591 412.467V413.659C32.0591 414.3 32.0018 414.841 31.8872 415.281C31.7726 415.722 31.6079 416.076 31.3931 416.345C31.1782 416.613 30.9186 416.808 30.6143 416.93C30.3135 417.048 29.9733 417.107 29.5938 417.107C29.293 417.107 29.0155 417.07 28.7612 416.995C28.507 416.919 28.2778 416.799 28.0737 416.635C27.8732 416.466 27.7013 416.248 27.5581 415.979C27.4149 415.711 27.3057 415.385 27.2305 415.002C27.1553 414.619 27.1177 414.171 27.1177 413.659V412.467C27.1177 411.826 27.175 411.289 27.2896 410.855C27.4077 410.422 27.5742 410.075 27.7891 409.813C28.0039 409.549 28.2617 409.359 28.5625 409.244C28.8669 409.13 29.207 409.072 29.583 409.072C29.8874 409.072 30.1667 409.11 30.4209 409.185C30.6787 409.257 30.9079 409.373 31.1084 409.534C31.3089 409.692 31.479 409.903 31.6187 410.168C31.7619 410.429 31.8711 410.75 31.9463 411.129C32.0215 411.509 32.0591 411.955 32.0591 412.467ZM31.0601 413.82V412.3C31.0601 411.949 31.0386 411.641 30.9956 411.376C30.9562 411.108 30.8971 410.879 30.8184 410.689C30.7396 410.499 30.6393 410.345 30.5176 410.227C30.3994 410.109 30.2616 410.023 30.104 409.969C29.95 409.912 29.7764 409.883 29.583 409.883C29.3467 409.883 29.1372 409.928 28.9546 410.018C28.772 410.104 28.618 410.241 28.4927 410.431C28.3709 410.621 28.2778 410.87 28.2134 411.178C28.1489 411.486 28.1167 411.86 28.1167 412.3V413.82C28.1167 414.171 28.1364 414.481 28.1758 414.75C28.2188 415.018 28.2814 415.251 28.3638 415.448C28.4461 415.641 28.5464 415.8 28.6646 415.926C28.7827 416.051 28.9188 416.144 29.0728 416.205C29.2303 416.262 29.404 416.291 29.5938 416.291C29.8372 416.291 30.0503 416.244 30.2329 416.151C30.4155 416.058 30.5677 415.913 30.6895 415.716C30.8148 415.516 30.9079 415.26 30.9688 414.948C31.0296 414.633 31.0601 414.257 31.0601 413.82Z" fill="#C8CBCA"/>
<path d="M201.795 448.991H203.382C203.331 449.596 203.162 450.136 202.874 450.61C202.586 451.08 202.182 451.45 201.662 451.721C201.141 451.992 200.508 452.127 199.764 452.127C199.192 452.127 198.678 452.025 198.221 451.822C197.764 451.615 197.373 451.323 197.047 450.946C196.721 450.565 196.471 450.106 196.298 449.569C196.129 449.031 196.044 448.431 196.044 447.766V446.998C196.044 446.334 196.131 445.733 196.304 445.195C196.482 444.658 196.736 444.199 197.066 443.818C197.396 443.433 197.792 443.139 198.253 442.936C198.718 442.732 199.241 442.631 199.821 442.631C200.557 442.631 201.179 442.766 201.687 443.037C202.195 443.308 202.588 443.682 202.868 444.161C203.151 444.639 203.325 445.187 203.388 445.805H201.801C201.759 445.407 201.666 445.066 201.522 444.783C201.382 444.499 201.175 444.283 200.9 444.135C200.625 443.983 200.265 443.907 199.821 443.907C199.457 443.907 199.139 443.974 198.869 444.11C198.598 444.245 198.371 444.444 198.189 444.707C198.007 444.969 197.87 445.293 197.777 445.678C197.688 446.059 197.644 446.494 197.644 446.985V447.766C197.644 448.232 197.684 448.655 197.764 449.036C197.849 449.412 197.976 449.736 198.145 450.007C198.319 450.278 198.539 450.487 198.805 450.635C199.072 450.783 199.391 450.857 199.764 450.857C200.216 450.857 200.583 450.785 200.862 450.642C201.145 450.498 201.359 450.288 201.503 450.013C201.651 449.734 201.748 449.393 201.795 448.991ZM208.428 443.989L205.667 452H203.998L207.476 442.758H208.542L208.428 443.989ZM210.739 452L207.971 443.989L207.851 442.758H208.923L212.415 452H210.739ZM210.605 448.572V449.835H205.578V448.572H210.605ZM220.781 442.758V452H219.188L215.042 445.379V452H213.449V442.758H215.042L219.2 449.391V442.758H220.781ZM228.138 448.991H229.725C229.674 449.596 229.505 450.136 229.217 450.61C228.929 451.08 228.525 451.45 228.004 451.721C227.484 451.992 226.851 452.127 226.106 452.127C225.535 452.127 225.021 452.025 224.564 451.822C224.107 451.615 223.715 451.323 223.39 450.946C223.064 450.565 222.814 450.106 222.641 449.569C222.471 449.031 222.387 448.431 222.387 447.766V446.998C222.387 446.334 222.473 445.733 222.647 445.195C222.825 444.658 223.079 444.199 223.409 443.818C223.739 443.433 224.134 443.139 224.596 442.936C225.061 442.732 225.584 442.631 226.164 442.631C226.9 442.631 227.522 442.766 228.03 443.037C228.538 443.308 228.931 443.682 229.21 444.161C229.494 444.639 229.667 445.187 229.731 445.805H228.144C228.102 445.407 228.009 445.066 227.865 444.783C227.725 444.499 227.518 444.283 227.243 444.135C226.968 443.983 226.608 443.907 226.164 443.907C225.8 443.907 225.482 443.974 225.211 444.11C224.941 444.245 224.714 444.444 224.532 444.707C224.35 444.969 224.213 445.293 224.12 445.678C224.031 446.059 223.986 446.494 223.986 446.985V447.766C223.986 448.232 224.027 448.655 224.107 449.036C224.192 449.412 224.319 449.736 224.488 450.007C224.661 450.278 224.881 450.487 225.148 450.635C225.415 450.783 225.734 450.857 226.106 450.857C226.559 450.857 226.925 450.785 227.205 450.642C227.488 450.498 227.702 450.288 227.846 450.013C227.994 449.734 228.091 449.393 228.138 448.991ZM237.221 450.737V452H232.314V450.737H237.221ZM232.765 442.758V452H231.172V442.758H232.765ZM236.58 446.617V447.861H232.314V446.617H236.58ZM237.189 442.758V444.027H232.314V442.758H237.189ZM244.312 450.737V452H239.671V450.737H244.312ZM240.116 442.758V452H238.522V442.758H240.116Z" fill="#004998"/>
<path d="M290.132 447.125V447.633C290.132 448.331 290.041 448.957 289.859 449.512C289.677 450.066 289.417 450.538 289.079 450.927C288.744 451.317 288.342 451.615 287.873 451.822C287.403 452.025 286.882 452.127 286.311 452.127C285.744 452.127 285.226 452.025 284.756 451.822C284.29 451.615 283.886 451.317 283.543 450.927C283.201 450.538 282.934 450.066 282.744 449.512C282.557 448.957 282.464 448.331 282.464 447.633V447.125C282.464 446.427 282.557 445.803 282.744 445.252C282.93 444.698 283.192 444.226 283.531 443.837C283.874 443.443 284.278 443.145 284.743 442.942C285.213 442.735 285.731 442.631 286.298 442.631C286.87 442.631 287.39 442.735 287.86 442.942C288.33 443.145 288.734 443.443 289.072 443.837C289.411 444.226 289.671 444.698 289.853 445.252C290.039 445.803 290.132 446.427 290.132 447.125ZM288.539 447.633V447.112C288.539 446.596 288.488 446.141 288.387 445.748C288.289 445.35 288.143 445.018 287.949 444.751C287.758 444.48 287.523 444.277 287.244 444.142C286.965 444.002 286.65 443.932 286.298 443.932C285.947 443.932 285.634 444.002 285.359 444.142C285.084 444.277 284.849 444.48 284.654 444.751C284.464 445.018 284.318 445.35 284.216 445.748C284.115 446.141 284.064 446.596 284.064 447.112V447.633C284.064 448.149 284.115 448.606 284.216 449.004C284.318 449.402 284.466 449.738 284.661 450.013C284.86 450.284 285.097 450.489 285.372 450.629C285.647 450.764 285.96 450.832 286.311 450.832C286.667 450.832 286.982 450.764 287.257 450.629C287.532 450.489 287.765 450.284 287.955 450.013C288.146 449.738 288.289 449.402 288.387 449.004C288.488 448.606 288.539 448.149 288.539 447.633ZM293.319 442.758V452H291.726V442.758H293.319ZM298.873 442.758L295.128 447.208L292.995 449.467L292.716 447.887L294.239 446.008L296.931 442.758H298.873ZM297.159 452L294.119 447.62L295.217 446.535L299.051 452H297.159Z" fill="#004998"/>
<defs>
<filter id="filter0_d_270_3569" x="0" y="0" width="330" height="125" filterUnits="userSpaceOnUse" color-interpolation-filters="sRGB">
<feFlood flood-opacity="0" result="BackgroundImageFix"/>
<feColorMatrix in="SourceAlpha" type="matrix" values="0 0 0 0 0 0 0 0 0 0 0 0 0 0 0 0 0 0 127 0" result="hardAlpha"/>
<feOffset dy="4"/>
<feGaussianBlur stdDeviation="2"/>
<feComposite in2="hardAlpha" operator="out"/>
<feColorMatrix type="matrix" values="0 0 0 0 0 0 0 0 0 0 0 0 0 0 0 0 0 0 0.25 0"/>
<feBlend mode="normal" in2="BackgroundImageFix" result="effect1_dropShadow_270_3569"/>
<feBlend mode="normal" in="SourceGraphic" in2="effect1_dropShadow_270_3569" result="shape"/>
</filter>
</defs>
</svg>
